<svg width="22" height="117" viewBox="0 0 22 117" fill="none" xmlns="http://www.w3.org/2000/svg">
<path opacity="0.75" d="M15.2031 116.453C14.4375 116.453 13.7266 116.426 13.0703 116.371C12.4141 116.316 11.776 116.225 11.1562 116.098C10.5182 115.97 9.88021 115.824 9.24219 115.66C8.58594 115.478 7.88411 115.259 7.13672 115.004C6.6263 114.84 6.00651 114.585 5.27734 114.238C4.54818 113.874 3.86458 113.445 3.22656 112.953C2.57031 112.443 2.01432 111.878 1.55859 111.258C1.10286 110.62 0.875 109.954 0.875 109.262L0.875 106.992C0.875 106.974 0.893229 106.919 0.929687 106.828C0.947916 106.719 0.966145 106.637 0.984375 106.582C1.33073 105.871 1.75911 105.315 2.26953 104.914C2.76172 104.513 3.39974 104.24 4.18359 104.094C4.93099 103.93 5.65104 103.757 6.34375 103.574C7.01823 103.374 7.72917 103.273 8.47656 103.273C9.36979 103.273 10.2539 103.301 11.1289 103.355C12.0039 103.392 12.888 103.41 13.7812 103.41C13.8359 103.41 13.9362 103.41 14.082 103.41C14.2096 103.41 14.3555 103.41 14.5195 103.41C14.6836 103.392 14.8385 103.383 14.9844 103.383C15.1302 103.383 15.2214 103.383 15.2578 103.383C15.4036 103.365 15.6133 103.346 15.8867 103.328C16.1602 103.31 16.4609 103.273 16.7891 103.219C17.1172 103.164 17.4544 103.109 17.8008 103.055C18.1471 103 18.4661 102.936 18.7578 102.863C19.0312 102.772 19.2591 102.672 19.4414 102.562C19.6237 102.453 19.7148 102.326 19.7148 102.18C19.7148 101.687 19.651 101.177 19.5234 100.648C19.3958 100.102 19.1953 99.6094 18.9219 99.1719C18.8854 99.1354 18.8216 99.0534 18.7305 98.9258C18.6211 98.7799 18.5117 98.6341 18.4023 98.4883C18.2747 98.3242 18.1654 98.1784 18.0742 98.0508C17.9648 97.9049 17.8828 97.7956 17.8281 97.7227C17.737 97.5951 17.6732 97.4948 17.6367 97.4219C17.582 97.3307 17.5547 97.2214 17.5547 97.0937C17.5547 96.9844 17.5911 96.8841 17.6641 96.793C17.7187 96.7018 17.8099 96.6562 17.9375 96.6562C18.3568 96.6562 18.7487 96.8932 19.1133 97.3672C19.4779 97.8229 19.806 98.3607 20.0977 98.9805C20.3893 99.6003 20.6263 100.229 20.8086 100.867C20.9727 101.487 21.0547 101.952 21.0547 102.262C21.0547 102.663 20.8542 103.009 20.4531 103.301C20.0339 103.574 19.5508 103.82 19.0039 104.039C18.4388 104.24 17.8646 104.422 17.2812 104.586C16.6797 104.732 16.1875 104.878 15.8047 105.023C16.5339 105.279 17.2174 105.661 17.8555 106.172C18.4753 106.664 19.0221 107.229 19.4961 107.867C19.9701 108.505 20.3437 109.198 20.6172 109.945C20.8906 110.693 21.0273 111.449 21.0273 112.215C21.0273 113.053 20.8633 113.755 20.5352 114.32C20.1888 114.867 19.7513 115.305 19.2227 115.633C18.6758 115.943 18.056 116.161 17.3633 116.289C16.6523 116.398 15.9323 116.453 15.2031 116.453ZM14.9844 114.758C15.5312 114.758 16.0872 114.749 16.6523 114.73C17.1992 114.694 17.7005 114.594 18.1562 114.43C18.612 114.247 18.9857 113.974 19.2773 113.609C19.5508 113.227 19.6875 112.689 19.6875 111.996C19.6875 111.085 19.487 110.273 19.0859 109.562C18.6667 108.852 18.1289 108.232 17.4727 107.703C16.7982 107.174 16.0326 106.728 15.1758 106.363C14.3008 105.999 13.4167 105.707 12.5234 105.488C11.612 105.27 10.7279 105.115 9.87109 105.023C9.01432 104.914 8.2487 104.859 7.57422 104.859C7.57422 105.333 7.35547 105.57 6.91797 105.57C6.64453 105.57 6.40755 105.516 6.20703 105.406C5.98828 105.297 5.71484 105.242 5.38672 105.242C4.98568 105.242 4.59375 105.315 4.21094 105.461C3.82812 105.589 3.48177 105.789 3.17187 106.062C2.86198 106.318 2.625 106.628 2.46094 106.992C2.27865 107.339 2.1875 107.721 2.1875 108.141C2.1875 108.997 2.42448 109.754 2.89844 110.41C3.35417 111.048 3.95573 111.613 4.70312 112.105C5.45052 112.598 6.29818 113.017 7.24609 113.363C8.17578 113.691 9.1237 113.965 10.0898 114.184C11.0378 114.384 11.9492 114.53 12.8242 114.621C13.681 114.712 14.401 114.758 14.9844 114.758ZM17.2539 94.5781C17.2539 94.5964 17.2812 94.6237 17.3359 94.6602C17.3724 94.6784 17.3997 94.7057 17.418 94.7422C17.8008 94.9609 18.1745 95.1341 18.5391 95.2617C18.9036 95.3893 19.3229 95.5169 19.7969 95.6445C19.9792 95.7721 20.0977 95.9089 20.1523 96.0547C20.1888 96.1823 20.207 96.3372 20.207 96.5195C20.207 96.9388 20.0247 97.1484 19.6602 97.1484C18.8581 96.9479 18.2109 96.7747 17.7187 96.6289C17.2083 96.4831 16.7799 96.3555 16.4336 96.2461C16.069 96.1367 15.75 96.0456 15.4766 95.9727C15.2031 95.8815 14.9297 95.7904 14.6562 95.6992C14.3646 95.6081 14.0273 95.5169 13.6445 95.4258C13.2617 95.3164 12.7878 95.1979 12.2227 95.0703C11.6393 94.9245 10.9284 94.7604 10.0898 94.5781C9.2513 94.3958 8.22135 94.1771 7 93.9219L4.70312 92.9922C4.53906 92.9193 4.4388 92.8372 4.40234 92.7461C4.34766 92.6367 4.32031 92.5182 4.32031 92.3906C4.32031 92.2266 4.375 92.0716 4.48437 91.9258C4.57552 91.7799 4.71224 91.6888 4.89453 91.6523C4.93099 91.6523 5.00391 91.6523 5.11328 91.6523C5.22266 91.6523 5.34114 91.6523 5.46875 91.6523C5.57812 91.6341 5.6875 91.625 5.79687 91.625C5.88802 91.625 5.96094 91.625 6.01562 91.625C6.98177 91.625 7.8112 91.707 8.50391 91.8711C9.19661 92.0169 9.84375 92.2266 10.4453 92.5C11.0469 92.7552 11.6484 93.0469 12.25 93.375C12.8516 93.6849 13.5443 93.9948 14.3281 94.3047C13.763 93.8125 13.2799 93.2474 12.8789 92.6094C12.4779 91.9714 12.2773 91.2695 12.2773 90.5039C12.2773 90.431 12.2865 90.2943 12.3047 90.0937C12.3229 89.875 12.332 89.7292 12.332 89.6562C12.4414 89.2734 12.651 88.9453 12.9609 88.6719C13.2708 88.3802 13.6263 88.1523 14.0273 87.9883C14.4102 87.8242 14.8203 87.7057 15.2578 87.6328C15.6771 87.5599 16.0599 87.5234 16.4062 87.5234C16.7708 87.5234 17.1628 87.5599 17.582 87.6328C17.9831 87.7057 18.3659 87.7969 18.7305 87.9062L18.7305 87.6328L17.6914 83.668C17.582 83.3034 17.3906 82.9388 17.1172 82.5742C16.8437 82.1914 16.5885 81.8815 16.3516 81.6445L16.3516 81.5898C16.3516 81.5716 16.3516 81.5625 16.3516 81.5625C16.3333 81.5443 16.3242 81.526 16.3242 81.5078C16.3242 81.3437 16.3789 81.2161 16.4883 81.125C16.5794 81.0156 16.707 80.9609 16.8711 80.9609C17.1992 80.9609 17.5 81.0977 17.7734 81.3711C18.0469 81.6263 18.2839 81.9362 18.4844 82.3008C18.6667 82.6654 18.8307 83.0391 18.9766 83.4219C19.1042 83.8047 19.1953 84.1055 19.25 84.3242C19.3047 84.5065 19.3958 84.8255 19.5234 85.2812C19.6328 85.7187 19.7513 86.1927 19.8789 86.7031C20.0065 87.2135 20.125 87.7057 20.2344 88.1797C20.3437 88.6354 20.4167 88.9453 20.4531 89.1094C20.599 89.3828 20.7357 89.638 20.8633 89.875C20.9727 90.112 21.0273 90.3763 21.0273 90.668C21.0273 91.0872 20.9271 91.5521 20.7266 92.0625C20.5078 92.5547 20.2344 93.0104 19.9062 93.4297C19.5599 93.8307 19.1589 94.1589 18.7031 94.4141C18.2474 94.651 17.7643 94.7057 17.2539 94.5781ZM16.8437 93.9219C16.8437 93.6484 16.9622 93.4297 17.1992 93.2656C17.418 93.0833 17.6641 92.8828 17.9375 92.6641C18.2109 92.4453 18.457 92.1719 18.6758 91.8437C18.8945 91.4974 19.0039 91.0052 19.0039 90.3672L19.0039 89.793C18.8398 89.6289 18.6302 89.5013 18.375 89.4102C18.1198 89.3008 17.8646 89.2279 17.6094 89.1914C17.3359 89.1367 17.0625 89.1094 16.7891 89.1094C16.5156 89.1094 16.2604 89.1094 16.0234 89.1094C15.7682 89.1094 15.5039 89.1367 15.2305 89.1914C14.9388 89.2461 14.6745 89.3372 14.4375 89.4648C14.2005 89.5924 14.0091 89.7747 13.8633 90.0117C13.7174 90.2305 13.6445 90.4948 13.6445 90.8047C13.6445 91.1693 13.763 91.5521 14 91.9531C14.2187 92.3359 14.5013 92.6914 14.8477 93.0195C15.194 93.3477 15.5586 93.6393 15.9414 93.8945C16.3242 94.1497 16.6706 94.332 16.9805 94.4414C16.9076 94.3503 16.8711 94.2682 16.8711 94.1953C16.8529 94.1042 16.8437 94.013 16.8437 93.9219ZM18.8672 82.6289C18.849 82.6289 18.7852 82.6198 18.6758 82.6016C18.5664 82.5833 18.457 82.5651 18.3477 82.5469C18.2201 82.5286 18.1107 82.5104 18.0195 82.4922C17.9102 82.474 17.8372 82.4648 17.8008 82.4648L17.6914 82.4648L17.5273 82.4648L15.8047 82.082C15.1484 81.7721 14.5195 81.4531 13.918 81.125C13.3164 80.7786 12.7878 80.3867 12.332 79.9492C11.8763 79.5117 11.5117 79.0104 11.2383 78.4453C10.9648 77.862 10.8281 77.1602 10.8281 76.3398C10.8281 76.1758 10.8828 75.9753 10.9922 75.7383C11.0833 75.4831 11.2018 75.237 11.3477 75C11.4935 74.7448 11.6484 74.5169 11.8125 74.3164C11.9583 74.0977 12.0951 73.9336 12.2227 73.8242C12.1315 73.2591 12.0859 72.849 12.0859 72.5937C12.0677 72.3385 12.0586 72.1198 12.0586 71.9375C12.0404 71.7552 12.0039 71.5638 11.9492 71.3633C11.8945 71.1445 11.776 70.8164 11.5937 70.3789C11.5026 70.069 11.457 69.7682 11.457 69.4766C11.457 69.349 11.5117 69.2305 11.6211 69.1211C11.7305 68.9935 11.8581 68.9297 12.0039 68.9297C12.1862 68.9297 12.3503 68.9935 12.4961 69.1211C12.6419 69.2487 12.7331 69.4036 12.7695 69.5859L13.5352 73.0039L13.6719 73.3047C14.6562 73.3229 15.5951 73.5417 16.4883 73.9609C17.3815 74.3802 18.1654 74.9362 18.8398 75.6289C19.5143 76.3216 20.0521 77.1237 20.4531 78.0352C20.8359 78.9466 21.0273 79.8945 21.0273 80.8789C21.0273 80.9518 21.0182 81.0703 21 81.2344C21 81.3984 21 81.5078 21 81.5625C20.8359 81.9635 20.5352 82.2461 20.0977 82.4102C19.6602 82.556 19.25 82.6289 18.8672 82.6289ZM19.4141 80.8789C19.5052 80.8607 19.5508 80.7878 19.5508 80.6602C19.5508 80.5326 19.5508 80.4414 19.5508 80.3867C19.5508 79.7305 19.3867 79.056 19.0586 78.3633C18.7122 77.6706 18.2747 77.0508 17.7461 76.5039C17.1992 75.9388 16.5885 75.4831 15.9141 75.1367C15.2214 74.7721 14.5286 74.5898 13.8359 74.5898C13.8359 75.1732 13.7904 75.7565 13.6992 76.3398C13.5898 76.9232 13.5352 77.4883 13.5352 78.0352L13.5352 78.0625L15.9414 80.332C16.069 80.4596 16.2422 80.5599 16.4609 80.6328C16.6797 80.7057 16.9167 80.7604 17.1719 80.7969C17.4271 80.8333 17.6823 80.8607 17.9375 80.8789C18.1927 80.8971 18.4206 80.9062 18.6211 80.9062C18.6758 80.9062 18.8034 80.9062 19.0039 80.9062C19.2044 80.9062 19.3411 80.8971 19.4141 80.8789ZM18.0469 69.6953C17.7917 69.6224 17.5273 69.5768 17.2539 69.5586C16.9805 69.5221 16.6888 69.4857 16.3789 69.4492C16.069 69.3945 15.7227 69.3125 15.3398 69.2031C14.9388 69.0755 14.4922 68.8841 14 68.6289C13.5078 68.3737 12.9427 68.0365 12.3047 67.6172C11.6484 67.1797 10.901 66.6146 10.0625 65.9219C9.95312 65.849 9.86198 65.7578 9.78906 65.6484C9.69791 65.5391 9.65234 65.4206 9.65234 65.293C9.65234 65.0742 9.74349 64.8828 9.92578 64.7187C10.0898 64.5547 10.2721 64.4727 10.4727 64.4727C10.4909 64.4727 10.5547 64.4909 10.6641 64.5273C10.7552 64.5456 10.819 64.5638 10.8555 64.582C11.2747 64.7826 11.6484 64.974 11.9766 65.1562C12.3047 65.3385 12.6237 65.5299 12.9336 65.7305C13.2253 65.931 13.5352 66.1589 13.8633 66.4141C14.1914 66.651 14.5651 66.9336 14.9844 67.2617C15.5312 67.4805 16.0417 67.6719 16.5156 67.8359C16.9896 68 17.5182 68.082 18.1016 68.082C18.3932 68.082 18.6302 68.0729 18.8125 68.0547C18.9948 68.0182 19.2409 67.9271 19.5508 67.7812L19.5508 67.4805C19.5508 66.9518 19.3411 66.3503 18.9219 65.6758C18.4844 64.9831 17.974 64.3086 17.3906 63.6523C16.7891 62.9779 16.1784 62.3672 15.5586 61.8203C14.9388 61.2734 14.4375 60.8724 14.0547 60.6172C14.0182 60.5807 13.9362 60.5352 13.8086 60.4805C13.6628 60.4076 13.5716 60.362 13.5352 60.3437C13.4258 60.3073 13.2435 60.2435 12.9883 60.1523C12.7148 60.0612 12.4323 59.9701 12.1406 59.8789C11.849 59.7695 11.5755 59.6693 11.3203 59.5781C11.0469 59.487 10.8555 59.4232 10.7461 59.3867C10.582 59.3503 10.4909 59.2773 10.4727 59.168C10.4544 59.0586 10.4453 58.9492 10.4453 58.8398C10.4453 58.5117 10.5182 58.3021 10.6641 58.2109C10.7917 58.1198 11.0104 58.0742 11.3203 58.0742L11.7852 58.0742C12.2773 58.2565 12.7331 58.4206 13.1523 58.5664C13.5716 58.694 13.9818 58.8216 14.3828 58.9492C14.7839 59.0586 15.1849 59.1406 15.5859 59.1953C15.987 59.25 16.4245 59.2773 16.8984 59.2773C16.9531 59.2773 17.0807 59.2865 17.2812 59.3047C17.4818 59.3047 17.6914 59.2956 17.9102 59.2773C18.1107 59.2409 18.3021 59.1862 18.4844 59.1133C18.6484 59.0221 18.7305 58.8945 18.7305 58.7305C18.7305 58.293 18.6758 57.8464 18.5664 57.3906C18.4388 56.9167 18.2839 56.4427 18.1016 55.9687C17.901 55.4948 17.6823 55.0482 17.4453 54.6289C17.2083 54.1914 16.9714 53.7812 16.7344 53.3984C16.6979 53.3073 16.6159 53.1979 16.4883 53.0703C16.3607 52.9427 16.2422 52.806 16.1328 52.6602C16.0052 52.5143 15.8958 52.3685 15.8047 52.2227C15.7135 52.0768 15.668 51.9401 15.668 51.8125C15.668 51.4479 15.8503 51.2656 16.2148 51.2656C16.4883 51.2656 16.7799 51.4297 17.0898 51.7578C17.3815 52.0859 17.6732 52.5052 17.9648 53.0156C18.2565 53.5078 18.5299 54.0638 18.7852 54.6836C19.0404 55.3034 19.2682 55.9049 19.4687 56.4883C19.651 57.0534 19.806 57.5638 19.9336 58.0195C20.043 58.4753 20.0977 58.8034 20.0977 59.0039C20.0977 59.0768 20.0977 59.2135 20.0977 59.4141C20.0794 59.5964 20.0703 59.724 20.0703 59.7969C19.9974 60.0885 19.8333 60.3164 19.5781 60.4805C19.3229 60.6445 19.0404 60.7721 18.7305 60.8633C18.4023 60.9362 18.0833 60.9818 17.7734 61C17.4453 61.0182 17.181 61.0273 16.9805 61.0273C17.0169 61.082 17.0625 61.1549 17.1172 61.2461C17.1536 61.319 17.1992 61.3646 17.2539 61.3828C17.3815 61.5286 17.582 61.7747 17.8555 62.1211C18.1107 62.4492 18.3932 62.8138 18.7031 63.2148C18.9948 63.5977 19.2682 63.9622 19.5234 64.3086C19.7786 64.6367 19.9609 64.8646 20.0703 64.9922C20.3437 65.3568 20.5716 65.7578 20.7539 66.1953C20.9362 66.6328 21.0273 67.0794 21.0273 67.5352C21.0273 68.0091 20.9544 68.3828 20.8086 68.6562C20.6445 68.9297 20.4349 69.1484 20.1797 69.3125C19.9062 69.4583 19.5872 69.5586 19.2227 69.6133C18.8581 69.668 18.4661 69.6953 18.0469 69.6953ZM13.6719 51.4844C13.599 51.4479 13.4896 51.375 13.3437 51.2656C13.1797 51.1562 13.043 51.1016 12.9336 51.1016L12.8516 51.1016C12.8333 51.1016 12.8151 51.1198 12.7969 51.1562C12.7604 51.1927 12.7422 51.2201 12.7422 51.2383L12.7422 51.7305C12.888 52.2044 12.9883 52.7331 13.043 53.3164C13.0977 53.918 13.1159 54.4922 13.0977 55.0391C13.0794 55.6042 13.0339 56.0872 12.9609 56.4883C12.8698 56.8893 12.7695 57.1263 12.6602 57.1992C12.5508 57.2721 12.4232 57.1354 12.2773 56.7891C12.1133 56.4427 11.9492 55.7865 11.7852 54.8203C11.7852 54.7656 11.7669 54.638 11.7305 54.4375C11.6758 54.2552 11.6302 54.0456 11.5937 53.8086C11.5573 53.5898 11.5208 53.3802 11.4844 53.1797C11.4297 52.9792 11.4023 52.8516 11.4023 52.7969C11.3841 52.724 11.375 52.569 11.375 52.332C11.3568 52.0951 11.3385 51.8581 11.3203 51.6211C11.3021 51.3659 11.293 51.1289 11.293 50.9102C11.293 50.6732 11.293 50.5091 11.293 50.418L11.1289 50.2812L7.54687 48.1484C7.41927 48.0755 7.31901 47.9479 7.24609 47.7656C7.17317 47.5651 7.13672 47.4102 7.13672 47.3008C7.13672 47.0638 7.23698 46.8997 7.4375 46.8086C7.61979 46.7174 7.80208 46.6719 7.98437 46.6719C8.0026 46.6719 8.02083 46.681 8.03906 46.6992C8.05729 46.6992 8.07552 46.6992 8.09375 46.6992L8.20312 46.6992L11.1289 47.9023L11.293 47.9023C11.1836 47.8659 11.1289 47.8021 11.1289 47.7109C11.1289 47.6016 11.1289 47.5195 11.1289 47.4648C11.1289 47.1914 11.22 46.9271 11.4023 46.6719C11.5846 46.4167 11.8307 46.2891 12.1406 46.2891C12.2865 46.2891 12.4049 46.3346 12.4961 46.4258C12.5872 46.5169 12.6602 46.6263 12.7148 46.7539C12.7695 46.8815 12.8151 47.0182 12.8516 47.1641C12.8698 47.3099 12.8789 47.4375 12.8789 47.5469C12.8789 47.7656 12.8516 47.9753 12.7969 48.1758C12.7422 48.3581 12.7148 48.5586 12.7148 48.7773C12.7148 48.9779 12.8242 49.1602 13.043 49.3242C13.2435 49.4883 13.5169 49.6432 13.8633 49.7891C14.1914 49.9167 14.5651 50.026 14.9844 50.1172C15.4036 50.2083 15.8138 50.2904 16.2148 50.3633C16.6159 50.4362 16.9896 50.4909 17.3359 50.5273C17.6823 50.5456 17.9466 50.5547 18.1289 50.5547C18.2018 50.5547 18.3477 50.5547 18.5664 50.5547C18.7852 50.5365 18.931 50.5273 19.0039 50.5273C19.1133 50.5091 19.2135 50.4635 19.3047 50.3906C19.3776 50.3177 19.4596 50.2448 19.5508 50.1719L19.5508 49.543C19.5508 48.8138 19.3867 48.0937 19.0586 47.3828C18.7305 46.6536 18.3568 45.9701 17.9375 45.332C17.9193 45.2956 17.8372 45.2135 17.6914 45.0859C17.5273 44.9401 17.3724 44.7852 17.2266 44.6211C17.0625 44.457 16.9167 44.3112 16.7891 44.1836C16.6615 44.0378 16.5977 43.9375 16.5977 43.8828C16.5977 43.7552 16.6615 43.6367 16.7891 43.5273C16.9167 43.418 17.0534 43.3633 17.1992 43.3633C17.5456 43.3633 17.8828 43.4909 18.2109 43.7461C18.5391 43.9831 18.849 44.293 19.1406 44.6758C19.4141 45.0586 19.6693 45.4961 19.9062 45.9883C20.1432 46.4805 20.3437 46.9727 20.5078 47.4648C20.6719 47.9388 20.7995 48.3945 20.8906 48.832C20.9818 49.2513 21.0273 49.5977 21.0273 49.8711C21.0273 50.1263 21 50.3906 20.9453 50.6641C20.8724 50.9375 20.763 51.1836 20.6172 51.4023C20.4714 51.6211 20.2891 51.8034 20.0703 51.9492C19.8516 52.0951 19.5781 52.168 19.25 52.168L16.2148 52.168L13.6719 51.4844ZM18.0469 31.8789C17.7917 31.806 17.5273 31.7604 17.2539 31.7422C16.9805 31.7057 16.6888 31.6693 16.3789 31.6328C16.069 31.5781 15.7227 31.4961 15.3398 31.3867C14.9388 31.2591 14.4922 31.0677 14 30.8125C13.5078 30.5573 12.9427 30.2201 12.3047 29.8008C11.6484 29.3633 10.901 28.7982 10.0625 28.1055C9.95312 28.0326 9.86198 27.9414 9.78906 27.832C9.69791 27.7227 9.65234 27.6042 9.65234 27.4766C9.65234 27.2578 9.74349 27.0664 9.92578 26.9023C10.0898 26.7383 10.2721 26.6562 10.4727 26.6562C10.4909 26.6562 10.5547 26.6745 10.6641 26.7109C10.7552 26.7292 10.819 26.7474 10.8555 26.7656C11.2747 26.9661 11.6484 27.1576 11.9766 27.3398C12.3047 27.5221 12.6237 27.7135 12.9336 27.9141C13.2253 28.1146 13.5352 28.3424 13.8633 28.5977C14.1914 28.8346 14.5651 29.1172 14.9844 29.4453C15.5312 29.6641 16.0417 29.8555 16.5156 30.0195C16.9896 30.1836 17.5182 30.2656 18.1016 30.2656C18.3932 30.2656 18.6302 30.2565 18.8125 30.2383C18.9948 30.2018 19.2409 30.1107 19.5508 29.9648L19.5508 29.6641C19.5508 29.1354 19.3411 28.5339 18.9219 27.8594C18.4844 27.1667 17.974 26.4922 17.3906 25.8359C16.7891 25.1615 16.1784 24.5508 15.5586 24.0039C14.9388 23.457 14.4375 23.056 14.0547 22.8008C14.0182 22.7643 13.9362 22.7187 13.8086 22.6641C13.6628 22.5911 13.5716 22.5456 13.5352 22.5273C13.4258 22.4909 13.2435 22.4271 12.9883 22.3359C12.7148 22.2448 12.4323 22.1536 12.1406 22.0625C11.849 21.9531 11.5755 21.8529 11.3203 21.7617C11.0469 21.6706 10.8555 21.6068 10.7461 21.5703C10.582 21.5339 10.4909 21.4609 10.4727 21.3516C10.4544 21.2422 10.4453 21.1328 10.4453 21.0234C10.4453 20.6953 10.5182 20.4857 10.6641 20.3945C10.7917 20.3034 11.0104 20.2578 11.3203 20.2578L11.7852 20.2578C12.2773 20.4401 12.7331 20.6042 13.1523 20.75C13.5716 20.8776 13.9818 21.0052 14.3828 21.1328C14.7838 21.2422 15.1849 21.3242 15.5859 21.3789C15.987 21.4336 16.4245 21.4609 16.8984 21.4609C16.9531 21.4609 17.0807 21.4701 17.2812 21.4883C17.4818 21.4883 17.6914 21.4792 17.9102 21.4609C18.1107 21.4245 18.3021 21.3698 18.4844 21.2969C18.6484 21.2057 18.7305 21.0781 18.7305 20.9141C18.7305 20.4766 18.6758 20.0299 18.5664 19.5742C18.4388 19.1003 18.2838 18.6263 18.1016 18.1523C17.901 17.6784 17.6823 17.2318 17.4453 16.8125C17.2083 16.375 16.9713 15.9648 16.7344 15.582C16.6979 15.4909 16.6159 15.3815 16.4883 15.2539C16.3607 15.1263 16.2422 14.9896 16.1328 14.8437C16.0052 14.6979 15.8958 14.5521 15.8047 14.4062C15.7135 14.2604 15.668 14.1237 15.668 13.9961C15.668 13.6315 15.8503 13.4492 16.2148 13.4492C16.4883 13.4492 16.7799 13.6133 17.0898 13.9414C17.3815 14.2695 17.6732 14.6888 17.9648 15.1992C18.2565 15.6914 18.5299 16.2474 18.7852 16.8672C19.0404 17.487 19.2682 18.0885 19.4687 18.6719C19.651 19.237 19.806 19.7474 19.9336 20.2031C20.043 20.6589 20.0977 20.987 20.0977 21.1875C20.0977 21.2604 20.0977 21.3971 20.0977 21.5977C20.0794 21.7799 20.0703 21.9076 20.0703 21.9805C19.9974 22.2721 19.8333 22.5 19.5781 22.6641C19.3229 22.8281 19.0404 22.9557 18.7305 23.0469C18.4023 23.1198 18.0833 23.1654 17.7734 23.1836C17.4453 23.2018 17.181 23.2109 16.9805 23.2109C17.0169 23.2656 17.0625 23.3385 17.1172 23.4297C17.1536 23.5026 17.1992 23.5482 17.2539 23.5664C17.3815 23.7122 17.582 23.9583 17.8555 24.3047C18.1107 24.6328 18.3932 24.9974 18.7031 25.3984C18.9948 25.7812 19.2682 26.1458 19.5234 26.4922C19.7786 26.8203 19.9609 27.0482 20.0703 27.1758C20.3437 27.5404 20.5716 27.9414 20.7539 28.3789C20.9362 28.8164 21.0273 29.263 21.0273 29.7187C21.0273 30.1927 20.9544 30.5664 20.8086 30.8398C20.6445 31.1133 20.4349 31.332 20.1797 31.4961C19.9062 31.6419 19.5872 31.7422 19.2227 31.7969C18.8581 31.8516 18.4661 31.8789 18.0469 31.8789ZM17.1445 12.957C17.2174 13.1029 17.263 13.2578 17.2812 13.4219C17.2812 13.5859 17.2812 13.75 17.2812 13.9141C17.2812 14.0781 17.2904 14.2422 17.3086 14.4062C17.3086 14.5703 17.345 14.7344 17.418 14.8984C17.4544 15.2083 17.4362 15.4089 17.3633 15.5C17.2721 15.5911 17.1536 15.6185 17.0078 15.582C16.862 15.5456 16.6979 15.4453 16.5156 15.2812C16.3333 15.1172 16.1784 14.9258 16.0508 14.707C15.9232 14.5065 15.832 14.2878 15.7773 14.0508C15.7227 13.7956 15.7318 13.5677 15.8047 13.3672C15.4766 13.4583 15.194 13.4492 14.957 13.3398C14.72 13.2305 14.6016 13.0117 14.6016 12.6836C14.6016 12.5195 14.6198 12.3737 14.6562 12.2461C14.6745 12.1003 14.7474 11.9909 14.875 11.918C14.7109 11.6445 14.4375 11.2799 14.0547 10.8242C13.6536 10.3685 13.2526 9.90364 12.8516 9.42969C12.4323 8.9375 12.0677 8.49088 11.7578 8.08984C11.4297 7.6888 11.2656 7.41536 11.2656 7.26953C11.2656 7.21484 11.2747 7.14193 11.293 7.05078C11.293 6.95963 11.3112 6.86849 11.3477 6.77734C11.3841 6.66797 11.4297 6.58594 11.4844 6.53125C11.5208 6.45833 11.5846 6.42187 11.6758 6.42187L12.8516 6.42187C13.362 6.54948 13.845 6.67708 14.3008 6.80469C14.7383 6.91406 15.1758 7.01432 15.6133 7.10547C16.0325 7.17838 16.4609 7.23307 16.8984 7.26953C17.3359 7.30599 17.8008 7.32422 18.293 7.32422C18.293 7.03255 18.2292 6.6862 18.1016 6.28515C17.974 5.86588 17.819 5.44661 17.6367 5.02734C17.4544 4.60807 17.2721 4.21614 17.0898 3.85156C16.8893 3.48698 16.7253 3.19531 16.5977 2.97656C16.5794 2.9401 16.5156 2.85807 16.4062 2.73047C16.2969 2.60286 16.1875 2.46614 16.0781 2.32031C15.9505 2.17448 15.8411 2.03776 15.75 1.91015C15.6406 1.76432 15.5677 1.67318 15.5312 1.63672C15.4948 1.60026 15.4492 1.50911 15.3945 1.36328C15.3216 1.21745 15.276 1.13542 15.2578 1.11719C15.2396 1.04427 15.2669 0.980467 15.3398 0.92578C15.3945 0.852863 15.4674 0.789061 15.5586 0.734374C15.6315 0.679686 15.7135 0.643228 15.8047 0.624999C15.8776 0.58854 15.9232 0.570311 15.9414 0.570311C16.1237 0.570311 16.306 0.643228 16.4883 0.789061C16.6706 0.934894 16.8437 1.10807 17.0078 1.30859C17.1536 1.50911 17.2995 1.71875 17.4453 1.9375C17.5729 2.13802 17.6914 2.29297 17.8008 2.40234C17.8737 2.54818 17.9922 2.80338 18.1562 3.16797C18.3203 3.51432 18.4935 3.88802 18.6758 4.28906C18.8581 4.6901 19.0312 5.07292 19.1953 5.4375C19.3594 5.78385 19.4779 6.02995 19.5508 6.17578C19.569 6.21224 19.5963 6.29427 19.6328 6.42187C19.651 6.54948 19.6875 6.6862 19.7422 6.83203C19.7969 6.97786 19.8424 7.1237 19.8789 7.26953C19.8971 7.39713 19.9154 7.47917 19.9336 7.51562C19.9883 7.67969 20.0794 7.80729 20.207 7.89844C20.3346 7.97135 20.4622 8.05338 20.5898 8.14453C20.7174 8.21745 20.8268 8.31771 20.918 8.44531C21.0091 8.55469 21.0365 8.73698 21 8.99219C20.9818 9.01042 20.9453 9.09245 20.8906 9.23828C20.8177 9.36588 20.763 9.44792 20.7266 9.48437C20.4167 9.92187 20.125 10.2956 19.8516 10.6055C19.5781 10.9154 19.3138 11.1979 19.0586 11.4531C18.7852 11.7083 18.4935 11.9544 18.1836 12.1914C17.8737 12.4102 17.5273 12.6654 17.1445 12.957ZM16.0508 11.2344C16.3242 11.1068 16.5885 10.9883 16.8437 10.8789C17.099 10.7513 17.345 10.6055 17.582 10.4414C17.8008 10.2773 17.9922 10.0951 18.1562 9.89453C18.3203 9.67578 18.4206 9.41146 18.457 9.10156C18.1836 9.0651 17.8555 9.01953 17.4727 8.96484C17.0898 8.91015 16.6888 8.84635 16.2695 8.77344C15.8503 8.70052 15.4401 8.61849 15.0391 8.52734C14.6198 8.41797 14.2552 8.29948 13.9453 8.17187L13.9453 8.44531C14.1458 8.73698 14.3463 9.01042 14.5469 9.26562C14.7292 9.5026 14.9115 9.73958 15.0937 9.97656C15.2578 10.2135 15.4036 10.4049 15.5312 10.5508C15.5495 10.569 15.5768 10.5964 15.6133 10.6328C15.6497 10.6693 15.668 10.6966 15.668 10.7148C15.7044 10.7331 15.7682 10.8151 15.8594 10.9609C15.9505 11.1068 16.0143 11.1979 16.0508 11.2344ZM13.5352 8.17187C13.5352 8.22656 13.5807 8.25391 13.6719 8.25391C13.7448 8.25391 13.7812 8.22656 13.7812 8.17187C13.7812 8.09896 13.7448 8.0625 13.6719 8.0625C13.5807 8.0625 13.5352 8.09896 13.5352 8.17187Z" fill="black"/>
</svg>
