<svg width="27" height="102" viewBox="0 0 27 102" fill="none" xmlns="http://www.w3.org/2000/svg">
<path opacity="0.75" d="M15.2812 101.234C14.2969 101.417 13.2669 101.389 12.1914 101.152C11.0977 100.897 10.013 100.496 8.9375 99.9492C7.86198 99.4023 6.83203 98.7279 5.84766 97.9258C4.84505 97.1237 3.94271 96.2669 3.14062 95.3555C2.33854 94.4258 1.66406 93.4596 1.11719 92.457C0.570312 91.4362 0.196614 90.4427 -0.0039068 89.4766C-0.00390681 89.1849 0.087239 88.9297 0.269531 88.7109C0.451822 88.474 0.679687 88.2734 0.953124 88.1094C1.22656 87.9453 1.51823 87.8268 1.82812 87.7539C2.13802 87.6628 2.42057 87.6172 2.67578 87.6172L5.32812 87.6172C5.51042 87.6172 5.62891 87.6901 5.68359 87.8359C5.72005 87.9818 5.73828 88.1094 5.73828 88.2187C5.73828 88.3464 5.72005 88.5013 5.68359 88.6836C5.64713 88.8659 5.52865 88.957 5.32812 88.957C5.25521 88.957 5.13672 88.9661 4.97266 88.9844C4.80859 89.0026 4.6263 89.0208 4.42578 89.0391C4.22526 89.0573 4.03385 89.0755 3.85156 89.0937C3.66927 89.0937 3.55078 89.0937 3.49609 89.0937C3.45963 89.0937 3.34115 89.1029 3.14062 89.1211C2.92187 89.1211 2.70312 89.1393 2.48437 89.1758C2.26562 89.2122 2.0651 89.2669 1.88281 89.3398C1.70052 89.4128 1.60937 89.5039 1.60937 89.6133L1.60937 90.5703C1.60937 90.5703 1.65495 90.6523 1.74609 90.8164C1.81901 90.9805 1.91016 91.1719 2.01953 91.3906C2.12891 91.6094 2.2474 91.8281 2.375 92.0469C2.48437 92.2656 2.58463 92.4297 2.67578 92.5391C2.71224 92.5937 2.77604 92.6849 2.86719 92.8125C2.95833 92.9219 3.04948 93.0404 3.14062 93.168C3.23177 93.2956 3.32292 93.4141 3.41406 93.5234C3.50521 93.6328 3.56901 93.7148 3.60547 93.7695C4.55339 94.7539 5.4375 95.6107 6.25781 96.3398C7.0599 97.069 7.89844 97.6797 8.77344 98.1719C9.64844 98.6641 10.5964 99.0378 11.6172 99.293C12.6198 99.5299 13.8138 99.6484 15.1992 99.6484C15.7461 99.6484 16.3568 99.6211 17.0312 99.5664C17.6875 99.4935 18.362 99.3932 19.0547 99.2656C19.7474 99.1198 20.431 98.9193 21.1055 98.6641C21.7617 98.4089 22.3451 98.0898 22.8555 97.707C23.3659 97.3242 23.776 96.8594 24.0859 96.3125C24.3958 95.7656 24.5508 95.1185 24.5508 94.3711L24.5508 93.7695C24.2773 92.9492 24.0312 92.2292 23.8125 91.6094C23.5755 90.9714 23.3385 90.4062 23.1016 89.9141C22.8646 89.4036 22.6094 88.9479 22.3359 88.5469C22.0443 88.1276 21.6979 87.7266 21.2969 87.3437C20.8958 86.9427 20.4128 86.5326 19.8477 86.1133C19.2826 85.694 18.6172 85.2201 17.8516 84.6914C17.8516 84.6732 17.8516 84.6458 17.8516 84.6094C17.8333 84.5729 17.8242 84.5365 17.8242 84.5C17.8242 84.1719 17.9883 84.0078 18.3164 84.0078C18.7357 84.0078 19.2096 84.1172 19.7383 84.3359C20.2487 84.5365 20.8138 84.9193 21.4336 85.4844C22.0534 86.0312 22.7096 86.806 23.4023 87.8086C24.0768 88.793 24.7604 90.0599 25.4531 91.6094C25.5807 91.901 25.6901 92.1562 25.7812 92.375C25.8542 92.5937 25.9089 92.8034 25.9453 93.0039C25.9818 93.2044 26 93.4141 26 93.6328C26.0182 93.8333 26.0273 94.0612 26.0273 94.3164C26.0273 95.2643 25.8633 96.0937 25.5352 96.8047C25.207 97.4974 24.7695 98.099 24.2227 98.6094C23.6576 99.1198 23.0195 99.5482 22.3086 99.8945C21.5794 100.223 20.8138 100.487 20.0117 100.687C19.1914 100.888 18.3802 101.034 17.5781 101.125C16.7578 101.198 15.9922 101.234 15.2812 101.234ZM23.8672 84.7187C23.849 84.7187 23.7852 84.7096 23.6758 84.6914C23.5664 84.6732 23.457 84.6549 23.3477 84.6367C23.2201 84.6185 23.1107 84.6003 23.0195 84.582C22.9102 84.5638 22.8372 84.5547 22.8008 84.5547L22.6914 84.5547L22.5273 84.5547L20.8047 84.1719C20.1484 83.862 19.5195 83.543 18.918 83.2148C18.3164 82.8685 17.7878 82.4766 17.332 82.0391C16.8763 81.6016 16.5117 81.1003 16.2383 80.5352C15.9648 79.9518 15.8281 79.25 15.8281 78.4297C15.8281 78.2656 15.8828 78.0651 15.9922 77.8281C16.0833 77.5729 16.2018 77.3268 16.3477 77.0898C16.4935 76.8346 16.6484 76.6068 16.8125 76.4062C16.9583 76.1875 17.0951 76.0234 17.2227 75.9141C17.1315 75.349 17.0859 74.9388 17.0859 74.6836C17.0677 74.4284 17.0586 74.2096 17.0586 74.0273C17.0404 73.8451 17.0039 73.6536 16.9492 73.4531C16.8945 73.2344 16.776 72.9062 16.5937 72.4687C16.5026 72.1589 16.457 71.8581 16.457 71.5664C16.457 71.4388 16.5117 71.3203 16.6211 71.2109C16.7305 71.0833 16.8581 71.0195 17.0039 71.0195C17.1862 71.0195 17.3503 71.0833 17.4961 71.2109C17.6419 71.3385 17.7331 71.4935 17.7695 71.6758L18.5352 75.0937L18.6719 75.3945C19.6562 75.4128 20.5951 75.6315 21.4883 76.0508C22.3815 76.4701 23.1654 77.026 23.8398 77.7187C24.5143 78.4115 25.0521 79.2135 25.4531 80.125C25.8359 81.0365 26.0273 81.9844 26.0273 82.9687C26.0273 83.0417 26.0182 83.1602 26 83.3242C26 83.4883 26 83.5977 26 83.6523C25.8359 84.0534 25.5352 84.3359 25.0977 84.5C24.6602 84.6458 24.25 84.7187 23.8672 84.7187ZM24.4141 82.9687C24.5052 82.9505 24.5508 82.8776 24.5508 82.75C24.5508 82.6224 24.5508 82.5312 24.5508 82.4766C24.5508 81.8203 24.3867 81.1458 24.0586 80.4531C23.7122 79.7604 23.2747 79.1406 22.7461 78.5937C22.1992 78.0286 21.5885 77.5729 20.9141 77.2266C20.2214 76.862 19.5286 76.6797 18.8359 76.6797C18.8359 77.263 18.7904 77.8464 18.6992 78.4297C18.5898 79.013 18.5352 79.5781 18.5352 80.125L18.5352 80.1523L20.9414 82.4219C21.069 82.5495 21.2422 82.6497 21.4609 82.7227C21.6797 82.7956 21.9167 82.8503 22.1719 82.8867C22.4271 82.9232 22.6823 82.9505 22.9375 82.9687C23.1927 82.987 23.4206 82.9961 23.6211 82.9961C23.6758 82.9961 23.8034 82.9961 24.0039 82.9961C24.2044 82.9961 24.3411 82.987 24.4141 82.9687ZM25.4531 71.6758L19.9844 70.7461L19.2187 70.7461L15.582 70.1992C15.5091 70.1445 15.4727 70.0443 15.4727 69.8984C15.4544 69.7526 15.4453 69.6523 15.4453 69.5977C15.4453 69.4518 15.5 69.2878 15.6094 69.1055C15.7005 68.9049 15.8281 68.8047 15.9922 68.8047L17.8516 68.8047C17.7969 68.7318 17.6875 68.6042 17.5234 68.4219C17.3594 68.2396 17.1862 68.0482 17.0039 67.8477C16.8216 67.6289 16.6484 67.4284 16.4844 67.2461C16.3203 67.0638 16.2018 66.9453 16.1289 66.8906C15.9466 66.6901 15.7917 66.4531 15.6641 66.1797C15.5365 65.888 15.4727 65.6146 15.4727 65.3594C15.4727 64.8307 15.6367 64.4206 15.9648 64.1289C16.293 63.819 16.7122 63.6641 17.2227 63.6641C17.2591 63.6641 17.2865 63.6732 17.3047 63.6914C17.3047 63.6914 17.3229 63.6914 17.3594 63.6914L17.4687 63.6914L22.1445 64.7305L24.3594 64.7305C24.3594 64.1654 24.25 63.582 24.0312 62.9805C23.7943 62.3607 23.5026 61.7682 23.1562 61.2031C22.8099 60.638 22.418 60.1094 21.9805 59.6172C21.5247 59.125 21.0872 58.6966 20.668 58.332L20.668 58.2227C20.668 58.0951 20.7135 57.9948 20.8047 57.9219C20.8776 57.8307 20.9779 57.7852 21.1055 57.7852C21.5065 57.7852 21.9076 57.9219 22.3086 58.1953C22.6914 58.4505 23.056 58.7878 23.4023 59.207C23.7487 59.6081 24.0768 60.082 24.3867 60.6289C24.6966 61.1576 24.9609 61.6862 25.1797 62.2148C25.3984 62.7253 25.5716 63.2266 25.6992 63.7187C25.8268 64.2109 25.8906 64.6302 25.8906 64.9766C25.8906 65.3229 25.8268 65.5964 25.6992 65.7969C25.5716 65.9974 25.4076 66.1523 25.207 66.2617C24.9883 66.3529 24.7513 66.4167 24.4961 66.4531C24.2409 66.4714 23.9674 66.4805 23.6758 66.4805L23.3203 66.4805L18.0156 65.4141L17.1133 65.4141C17.1133 65.8516 17.3047 66.2891 17.6875 66.7266C18.0703 67.1458 18.5352 67.5286 19.082 67.875C19.6289 68.2031 20.1849 68.4948 20.75 68.75C21.3151 68.987 21.7799 69.1602 22.1445 69.2695C22.2721 69.306 22.5 69.3607 22.8281 69.4336C23.1562 69.5065 23.5026 69.5794 23.8672 69.6523C24.2318 69.707 24.5781 69.7617 24.9062 69.8164C25.2344 69.8711 25.4714 69.9076 25.6172 69.9258C25.7266 69.9076 25.8086 69.944 25.8633 70.0352C25.918 70.1081 25.9635 70.1992 26 70.3086C26.0182 70.418 26.0273 70.5365 26.0273 70.6641C26.0273 70.7734 26.0273 70.8646 26.0273 70.9375C26.0273 71.1016 26 71.2656 25.9453 71.4297C25.8906 71.5937 25.7539 71.6758 25.5352 71.6758L25.4531 71.6758ZM18.6719 58.4687C18.599 58.4323 18.4896 58.3594 18.3437 58.25C18.1797 58.1406 18.043 58.0859 17.9336 58.0859L17.8516 58.0859C17.8333 58.0859 17.8151 58.1042 17.7969 58.1406C17.7604 58.1771 17.7422 58.2044 17.7422 58.2227L17.7422 58.7148C17.888 59.1888 17.9883 59.7174 18.043 60.3008C18.0977 60.9023 18.1159 61.4766 18.0977 62.0234C18.0794 62.5885 18.0339 63.0716 17.9609 63.4727C17.8698 63.8737 17.7695 64.1107 17.6602 64.1836C17.5508 64.2565 17.4232 64.1198 17.2773 63.7734C17.1133 63.4271 16.9492 62.7708 16.7852 61.8047C16.7852 61.75 16.7669 61.6224 16.7305 61.4219C16.6758 61.2396 16.6302 61.0299 16.5937 60.793C16.5573 60.5742 16.5208 60.3646 16.4844 60.1641C16.4297 59.9635 16.4023 59.8359 16.4023 59.7812C16.3841 59.7083 16.375 59.5534 16.375 59.3164C16.3568 59.0794 16.3385 58.8424 16.3203 58.6055C16.3021 58.3503 16.293 58.1133 16.293 57.8945C16.293 57.6576 16.293 57.4935 16.293 57.4023L16.1289 57.2656L12.5469 55.1328C12.4193 55.0599 12.319 54.9323 12.2461 54.75C12.1732 54.5495 12.1367 54.3945 12.1367 54.2852C12.1367 54.0482 12.237 53.8841 12.4375 53.793C12.6198 53.7018 12.8021 53.6562 12.9844 53.6562C13.0026 53.6562 13.0208 53.6654 13.0391 53.6836C13.0573 53.6836 13.0755 53.6836 13.0937 53.6836L13.2031 53.6836L16.1289 54.8867L16.293 54.8867C16.1836 54.8503 16.1289 54.7865 16.1289 54.6953C16.1289 54.5859 16.1289 54.5039 16.1289 54.4492C16.1289 54.1758 16.22 53.9115 16.4023 53.6562C16.5846 53.401 16.8307 53.2734 17.1406 53.2734C17.2865 53.2734 17.4049 53.319 17.4961 53.4102C17.5872 53.5013 17.6602 53.6107 17.7148 53.7383C17.7695 53.8659 17.8151 54.0026 17.8516 54.1484C17.8698 54.2943 17.8789 54.4219 17.8789 54.5312C17.8789 54.75 17.8516 54.9596 17.7969 55.1602C17.7422 55.3424 17.7148 55.543 17.7148 55.7617C17.7148 55.9622 17.8242 56.1445 18.043 56.3086C18.2435 56.4727 18.5169 56.6276 18.8633 56.7734C19.1914 56.901 19.5651 57.0104 19.9844 57.1016C20.4036 57.1927 20.8138 57.2747 21.2148 57.3477C21.6159 57.4206 21.9896 57.4753 22.3359 57.5117C22.6823 57.5299 22.9466 57.5391 23.1289 57.5391C23.2018 57.5391 23.3477 57.5391 23.5664 57.5391C23.7852 57.5208 23.931 57.5117 24.0039 57.5117C24.1133 57.4935 24.2135 57.4479 24.3047 57.375C24.3776 57.3021 24.4596 57.2292 24.5508 57.1562L24.5508 56.5273C24.5508 55.7982 24.3867 55.0781 24.0586 54.3672C23.7305 53.638 23.3568 52.9544 22.9375 52.3164C22.9193 52.2799 22.8372 52.1979 22.6914 52.0703C22.5273 51.9245 22.3724 51.7695 22.2266 51.6055C22.0625 51.4414 21.9167 51.2956 21.7891 51.168C21.6615 51.0221 21.5977 50.9219 21.5977 50.8672C21.5977 50.7396 21.6615 50.6211 21.7891 50.5117C21.9167 50.4023 22.0534 50.3477 22.1992 50.3477C22.5456 50.3477 22.8828 50.4753 23.2109 50.7305C23.5391 50.9674 23.849 51.2773 24.1406 51.6602C24.4141 52.043 24.6693 52.4805 24.9062 52.9727C25.1432 53.4648 25.3437 53.957 25.5078 54.4492C25.6719 54.9232 25.7995 55.3789 25.8906 55.8164C25.9818 56.2357 26.0273 56.582 26.0273 56.8555C26.0273 57.1107 26 57.375 25.9453 57.6484C25.8724 57.9219 25.763 58.168 25.6172 58.3867C25.4714 58.6055 25.2891 58.7878 25.0703 58.9336C24.8516 59.0794 24.5781 59.1523 24.25 59.1523L21.2148 59.1523L18.6719 58.4687ZM25.1797 51.0039C25.125 51.0039 24.9883 51.0039 24.7695 51.0039C24.5508 51.0039 24.4049 51.0039 24.332 51.0039C23.2383 51.3138 22.1628 51.3594 21.1055 51.1406C20.0482 50.9036 19.1003 50.4935 18.2617 49.9102C17.4049 49.3086 16.694 48.5521 16.1289 47.6406C15.5456 46.7109 15.1901 45.6992 15.0625 44.6055L15.0625 44.1133C15.0625 43.7122 15.1536 43.3841 15.3359 43.1289C15.5 42.8555 15.7187 42.6458 15.9922 42.5C16.2656 42.3359 16.5755 42.2266 16.9219 42.1719C17.2682 42.099 17.6146 42.0625 17.9609 42.0625C18.4349 42.0625 18.8997 42.1172 19.3555 42.2266C19.793 42.3177 20.2396 42.4271 20.6953 42.5547C21.151 42.6641 21.6068 42.7734 22.0625 42.8828C22.5 42.974 22.9648 43.0195 23.457 43.0195L23.6211 43.0195C23.6575 43.0013 23.7669 42.9831 23.9492 42.9648C24.1133 42.9284 24.2135 42.901 24.25 42.8828C24.25 42.8464 24.2591 42.7552 24.2773 42.6094C24.2773 42.4635 24.2773 42.3724 24.2773 42.3359C24.2773 42.1536 24.2773 41.9805 24.2773 41.8164C24.2591 41.6341 24.2135 41.4518 24.1406 41.2695L21.7344 36.0742C21.7344 36.056 21.7344 36.0286 21.7344 35.9922C21.7161 35.9375 21.707 35.901 21.707 35.8828C21.707 35.7005 21.7617 35.5547 21.8711 35.4453C21.9805 35.3177 22.1263 35.2539 22.3086 35.2539C22.3997 35.2539 22.4909 35.263 22.582 35.2812C22.6549 35.2812 22.7279 35.3268 22.8008 35.418C22.8919 35.5456 23.0195 35.7826 23.1836 36.1289C23.3477 36.457 23.5299 36.8125 23.7305 37.1953C23.931 37.5781 24.1224 37.9427 24.3047 38.2891C24.487 38.6172 24.6055 38.8542 24.6602 39C24.806 39.2552 24.9427 39.5378 25.0703 39.8477C25.1797 40.1576 25.2891 40.4766 25.3984 40.8047C25.5078 41.1328 25.599 41.4609 25.6719 41.7891C25.7266 42.099 25.7539 42.3815 25.7539 42.6367C25.7539 43.0378 25.6901 43.3659 25.5625 43.6211C25.4167 43.8763 25.2344 44.0677 25.0156 44.1953C24.7786 44.3229 24.5052 44.4141 24.1953 44.4687C23.8672 44.5052 23.5299 44.5052 23.1836 44.4687C23.4753 44.8333 23.7852 45.2253 24.1133 45.6445C24.4414 46.0638 24.7422 46.5013 25.0156 46.957C25.2891 47.4128 25.526 47.8776 25.7266 48.3516C25.9271 48.8255 26.0273 49.3086 26.0273 49.8008C26.0273 50.0742 25.9635 50.3203 25.8359 50.5391C25.6901 50.7578 25.4714 50.9128 25.1797 51.0039ZM24.6055 49.5273C24.6055 49.1081 24.487 48.6432 24.25 48.1328C23.9948 47.6224 23.6849 47.1211 23.3203 46.6289C22.9557 46.1367 22.5729 45.6901 22.1719 45.2891C21.7526 44.888 21.3789 44.5781 21.0508 44.3594C20.5039 44.3411 19.9844 44.2682 19.4922 44.1406C18.9818 43.9948 18.4622 43.9219 17.9336 43.9219C17.8971 43.9219 17.8424 43.931 17.7695 43.9492C17.6966 43.9492 17.6419 43.9492 17.6055 43.9492C17.4049 44.1862 17.2865 44.3867 17.25 44.5508C17.2135 44.7148 17.1953 44.9336 17.1953 45.207C17.1953 45.2435 17.1953 45.3255 17.1953 45.4531C17.1953 45.5625 17.2044 45.6354 17.2227 45.6719C17.3138 45.7812 17.487 45.9635 17.7422 46.2187C17.9792 46.474 18.2435 46.7474 18.5352 47.0391C18.8268 47.3125 19.1003 47.5768 19.3555 47.832C19.6107 48.069 19.7839 48.2331 19.875 48.3242C19.875 48.3424 19.9115 48.3789 19.9844 48.4336C20.0391 48.4883 20.112 48.5521 20.2031 48.625C20.2943 48.6797 20.3854 48.7344 20.4766 48.7891C20.5495 48.8255 20.6133 48.8529 20.668 48.8711L23.8672 49.5273L24.6055 49.5273ZM22.2539 36.1562C21.3242 36.0651 20.4401 35.8555 19.6016 35.5273C18.763 35.181 18.043 34.7891 17.4414 34.3516C16.8398 33.8958 16.375 33.4401 16.0469 32.9844C15.7187 32.5104 15.6185 32.1003 15.7461 31.7539C15.6914 31.6628 15.6458 31.5898 15.6094 31.5352C15.5547 31.4622 15.5091 31.4076 15.4727 31.3711C15.418 31.3164 15.3815 31.2617 15.3633 31.207C15.3268 31.1341 15.3086 31.0339 15.3086 30.9062C15.3086 30.651 15.3906 30.4232 15.5547 30.2227C15.7187 30.0221 15.9193 29.849 16.1562 29.7031C16.3932 29.5391 16.6484 29.4206 16.9219 29.3477C17.1771 29.2565 17.4141 29.2109 17.6328 29.2109C17.8698 29.2109 18.0339 29.3021 18.125 29.4844C18.2161 29.6667 18.2617 29.8763 18.2617 30.1133C18.2617 30.2591 18.2344 30.3867 18.1797 30.4961C18.1068 30.6055 18.0247 30.7057 17.9336 30.7969C17.8424 30.8698 17.7513 30.9518 17.6602 31.043C17.569 31.1341 17.5052 31.2526 17.4687 31.3984L17.4687 31.4258L17.4687 31.5078C17.487 31.526 17.5325 31.5716 17.6055 31.6445C17.6602 31.6992 17.7057 31.7357 17.7422 31.7539C18.1979 32.1367 18.6081 32.4922 18.9727 32.8203C19.319 33.1484 19.6745 33.4401 20.0391 33.6953C20.4036 33.9323 20.7956 34.1237 21.2148 34.2695C21.6341 34.3971 22.1354 34.4609 22.7187 34.4609C22.7734 34.4609 22.8555 34.4609 22.9648 34.4609C23.0742 34.4609 23.1836 34.4609 23.293 34.4609C23.4023 34.4427 23.5117 34.4336 23.6211 34.4336C23.7305 34.4336 23.8125 34.4336 23.8672 34.4336C24.0495 34.3971 24.1862 34.2969 24.2773 34.1328C24.3685 33.9505 24.4596 33.7865 24.5508 33.6406C24.5508 33.5859 24.5599 33.4492 24.5781 33.2305C24.5781 33.0117 24.5781 32.8841 24.5781 32.8477C24.5781 32.1914 24.4779 31.4167 24.2773 30.5234C24.0586 29.6302 23.776 28.737 23.4297 27.8437C23.0833 26.9323 22.6732 26.0755 22.1992 25.2734C21.707 24.4714 21.1966 23.8333 20.668 23.3594C20.5221 23.25 20.3216 23.1589 20.0664 23.0859C19.8112 22.9948 19.5651 22.9036 19.3281 22.8125C19.0729 22.7031 18.8542 22.5846 18.6719 22.457C18.4896 22.3294 18.3984 22.138 18.3984 21.8828C18.3984 21.6458 18.4987 21.5 18.6992 21.4453C18.8815 21.3724 19.0638 21.3359 19.2461 21.3359C19.8294 21.3359 20.3581 21.4818 20.832 21.7734C21.306 22.0469 21.7344 22.3932 22.1172 22.8125C22.5 23.2318 22.8372 23.6966 23.1289 24.207C23.4206 24.6992 23.6667 25.1732 23.8672 25.6289C23.9036 25.7565 24.0039 26.0391 24.168 26.4766C24.332 26.8958 24.5052 27.3516 24.6875 27.8437C24.8698 28.3359 25.0521 28.819 25.2344 29.293C25.3984 29.7487 25.526 30.0859 25.6172 30.3047C25.7083 30.5964 25.7812 30.8424 25.8359 31.043C25.8724 31.2435 25.9089 31.4258 25.9453 31.5898C25.9818 31.7539 26 31.9271 26 32.1094C26.0182 32.2734 26.0273 32.474 26.0273 32.7109C26.0273 33.3672 25.9453 33.9141 25.7812 34.3516C25.6172 34.7708 25.3802 35.1081 25.0703 35.3633C24.7422 35.6185 24.3503 35.8099 23.8945 35.9375C23.4206 36.0469 22.8737 36.1198 22.2539 36.1562ZM18.6719 21.582C18.599 21.5456 18.4896 21.4727 18.3437 21.3633C18.1797 21.2539 18.043 21.1992 17.9336 21.1992L17.8516 21.1992C17.8333 21.1992 17.8151 21.2174 17.7969 21.2539C17.7604 21.2904 17.7422 21.3177 17.7422 21.3359L17.7422 21.8281C17.888 22.3021 17.9883 22.8307 18.043 23.4141C18.0977 24.0156 18.1159 24.5898 18.0977 25.1367C18.0794 25.7018 18.0339 26.1849 17.9609 26.5859C17.8698 26.987 17.7695 27.224 17.6602 27.2969C17.5508 27.3698 17.4232 27.2331 17.2773 26.8867C17.1133 26.5404 16.9492 25.8841 16.7852 24.918C16.7852 24.8633 16.7669 24.7357 16.7305 24.5352C16.6758 24.3529 16.6302 24.1432 16.5937 23.9062C16.5573 23.6875 16.5208 23.4779 16.4844 23.2773C16.4297 23.0768 16.4023 22.9492 16.4023 22.8945C16.3841 22.8216 16.375 22.6667 16.375 22.4297C16.3568 22.1927 16.3385 21.9557 16.3203 21.7187C16.3021 21.4635 16.293 21.2266 16.293 21.0078C16.293 20.7708 16.293 20.6068 16.293 20.5156L16.1289 20.3789L12.5469 18.2461C12.4193 18.1732 12.319 18.0456 12.2461 17.8633C12.1732 17.6628 12.1367 17.5078 12.1367 17.3984C12.1367 17.1615 12.237 16.9974 12.4375 16.9062C12.6198 16.8151 12.8021 16.7695 12.9844 16.7695C13.0026 16.7695 13.0208 16.7786 13.0391 16.7969C13.0573 16.7969 13.0755 16.7969 13.0937 16.7969L13.2031 16.7969L16.1289 18L16.293 18C16.1836 17.9635 16.1289 17.8997 16.1289 17.8086C16.1289 17.6992 16.1289 17.6172 16.1289 17.5625C16.1289 17.2891 16.22 17.0247 16.4023 16.7695C16.5846 16.5143 16.8307 16.3867 17.1406 16.3867C17.2865 16.3867 17.4049 16.4323 17.4961 16.5234C17.5872 16.6146 17.6602 16.724 17.7148 16.8516C17.7695 16.9792 17.8151 17.1159 17.8516 17.2617C17.8698 17.4076 17.8789 17.5352 17.8789 17.6445C17.8789 17.8633 17.8516 18.0729 17.7969 18.2734C17.7422 18.4557 17.7148 18.6562 17.7148 18.875C17.7148 19.0755 17.8242 19.2578 18.043 19.4219C18.2435 19.5859 18.5169 19.7409 18.8633 19.8867C19.1914 20.0143 19.5651 20.1237 19.9844 20.2148C20.4036 20.306 20.8138 20.388 21.2148 20.4609C21.6159 20.5339 21.9896 20.5885 22.3359 20.625C22.6823 20.6432 22.9466 20.6523 23.1289 20.6523C23.2018 20.6523 23.3477 20.6523 23.5664 20.6523C23.7852 20.6341 23.931 20.625 24.0039 20.625C24.1133 20.6068 24.2135 20.5612 24.3047 20.4883C24.3776 20.4154 24.4596 20.3424 24.5508 20.2695L24.5508 19.6406C24.5508 18.9115 24.3867 18.1914 24.0586 17.4805C23.7305 16.7513 23.3568 16.0677 22.9375 15.4297C22.9193 15.3932 22.8372 15.3112 22.6914 15.1836C22.5273 15.0378 22.3724 14.8828 22.2266 14.7187C22.0625 14.5547 21.9167 14.4089 21.7891 14.2812C21.6615 14.1354 21.5977 14.0352 21.5977 13.9805C21.5977 13.8529 21.6615 13.7344 21.7891 13.625C21.9167 13.5156 22.0534 13.4609 22.1992 13.4609C22.5456 13.4609 22.8828 13.5885 23.2109 13.8437C23.5391 14.0807 23.849 14.3906 24.1406 14.7734C24.4141 15.1562 24.6693 15.5937 24.9062 16.0859C25.1432 16.5781 25.3437 17.0703 25.5078 17.5625C25.6719 18.0365 25.7995 18.4922 25.8906 18.9297C25.9818 19.349 26.0273 19.6953 26.0273 19.9687C26.0273 20.224 26 20.4883 25.9453 20.7617C25.8724 21.0352 25.763 21.2812 25.6172 21.5C25.4714 21.7187 25.2891 21.901 25.0703 22.0469C24.8516 22.1927 24.5781 22.2656 24.25 22.2656L21.2148 22.2656L18.6719 21.582ZM22.1445 13.1602C22.2174 13.306 22.263 13.4609 22.2812 13.625C22.2812 13.7891 22.2812 13.9531 22.2812 14.1172C22.2812 14.2812 22.2904 14.4453 22.3086 14.6094C22.3086 14.7734 22.345 14.9375 22.418 15.1016C22.4544 15.4115 22.4362 15.612 22.3633 15.7031C22.2721 15.7943 22.1536 15.8216 22.0078 15.7852C21.862 15.7487 21.6979 15.6484 21.5156 15.4844C21.3333 15.3203 21.1784 15.1289 21.0508 14.9102C20.9232 14.7096 20.832 14.4909 20.7773 14.2539C20.7227 13.9987 20.7318 13.7708 20.8047 13.5703C20.4766 13.6615 20.194 13.6523 19.957 13.543C19.72 13.4336 19.6016 13.2148 19.6016 12.8867C19.6016 12.7227 19.6198 12.5768 19.6562 12.4492C19.6745 12.3034 19.7474 12.194 19.875 12.1211C19.7109 11.8477 19.4375 11.4831 19.0547 11.0273C18.6536 10.5716 18.2526 10.1068 17.8516 9.63281C17.4323 9.14062 17.0677 8.69401 16.7578 8.29297C16.4297 7.89193 16.2656 7.61849 16.2656 7.47266C16.2656 7.41797 16.2747 7.34505 16.293 7.25391C16.293 7.16276 16.3112 7.07161 16.3477 6.98047C16.3841 6.87109 16.4297 6.78906 16.4844 6.73437C16.5208 6.66146 16.5846 6.625 16.6758 6.625L17.8516 6.625C18.362 6.7526 18.845 6.88021 19.3008 7.00781C19.7383 7.11719 20.1758 7.21745 20.6133 7.30859C21.0325 7.38151 21.4609 7.4362 21.8984 7.47265C22.3359 7.50911 22.8008 7.52734 23.293 7.52734C23.293 7.23568 23.2292 6.88932 23.1016 6.48828C22.974 6.06901 22.819 5.64974 22.6367 5.23047C22.4544 4.8112 22.2721 4.41927 22.0898 4.05469C21.8893 3.6901 21.7253 3.39844 21.5977 3.17969C21.5794 3.14323 21.5156 3.0612 21.4062 2.93359C21.2969 2.80599 21.1875 2.66927 21.0781 2.52344C20.9505 2.3776 20.8411 2.24088 20.75 2.11328C20.6406 1.96745 20.5677 1.8763 20.5312 1.83984C20.4948 1.80338 20.4492 1.71224 20.3945 1.5664C20.3216 1.42057 20.276 1.33854 20.2578 1.32031C20.2396 1.24739 20.2669 1.18359 20.3398 1.1289C20.3945 1.05599 20.4674 0.992186 20.5586 0.937499C20.6315 0.882811 20.7135 0.846353 20.8047 0.828124C20.8776 0.791665 20.9232 0.773436 20.9414 0.773436C21.1237 0.773436 21.306 0.846353 21.4883 0.992186C21.6706 1.13802 21.8437 1.3112 22.0078 1.51172C22.1536 1.71224 22.2995 1.92187 22.4453 2.14062C22.5729 2.34114 22.6914 2.49609 22.8008 2.60547C22.8737 2.7513 22.9922 3.00651 23.1562 3.37109C23.3203 3.71745 23.4935 4.09114 23.6758 4.49219C23.8581 4.89323 24.0312 5.27604 24.1953 5.64062C24.3594 5.98698 24.4779 6.23307 24.5508 6.3789C24.569 6.41536 24.5963 6.49739 24.6328 6.625C24.651 6.7526 24.6875 6.88932 24.7422 7.03515C24.7969 7.18099 24.8424 7.32682 24.8789 7.47265C24.8971 7.60026 24.9154 7.68229 24.9336 7.71875C24.9883 7.88281 25.0794 8.01042 25.207 8.10156C25.3346 8.17448 25.4622 8.25651 25.5898 8.34765C25.7174 8.42057 25.8268 8.52083 25.918 8.64844C26.0091 8.75781 26.0365 8.9401 26 9.19531C25.9818 9.21354 25.9453 9.29557 25.8906 9.4414C25.8177 9.56901 25.763 9.65104 25.7266 9.6875C25.4167 10.125 25.125 10.4987 24.8516 10.8086C24.5781 11.1185 24.3138 11.401 24.0586 11.6562C23.7852 11.9115 23.4935 12.1576 23.1836 12.3945C22.8737 12.6133 22.5273 12.8685 22.1445 13.1602ZM21.0508 11.4375C21.3242 11.3099 21.5885 11.1914 21.8437 11.082C22.099 10.9544 22.345 10.8086 22.582 10.6445C22.8008 10.4805 22.9922 10.2982 23.1562 10.0977C23.3203 9.8789 23.4206 9.61458 23.457 9.30469C23.1836 9.26823 22.8555 9.22265 22.4727 9.16797C22.0898 9.11328 21.6888 9.04948 21.2695 8.97656C20.8503 8.90364 20.4401 8.82161 20.0391 8.73047C19.6198 8.62109 19.2552 8.5026 18.9453 8.375L18.9453 8.64844C19.1458 8.9401 19.3464 9.21354 19.5469 9.46875C19.7292 9.70573 19.9115 9.94271 20.0937 10.1797C20.2578 10.4167 20.4036 10.6081 20.5312 10.7539C20.5495 10.7721 20.5768 10.7995 20.6133 10.8359C20.6497 10.8724 20.668 10.8997 20.668 10.918C20.7044 10.9362 20.7682 11.0182 20.8594 11.1641C20.9505 11.3099 21.0143 11.401 21.0508 11.4375ZM18.5352 8.375C18.5352 8.42969 18.5807 8.45703 18.6719 8.45703C18.7448 8.45703 18.7812 8.42969 18.7812 8.375C18.7812 8.30208 18.7448 8.26562 18.6719 8.26562C18.5807 8.26562 18.5352 8.30208 18.5352 8.375Z" fill="black"/>
</svg>
