<svg width="24" height="118" viewBox="0 0 24 118" fill="none" xmlns="http://www.w3.org/2000/svg">
<path opacity="0.75" d="M6.45703 113.625L6.18359 113.461L3.14844 112.805C2.92969 112.75 2.80208 112.659 2.76562 112.531C2.72917 112.385 2.71094 112.24 2.71094 112.094C2.71094 111.729 2.79297 111.51 2.95703 111.437C3.12109 111.365 3.3763 111.328 3.72266 111.328C3.79557 111.328 3.89583 111.337 4.02344 111.355C4.13281 111.355 4.1875 111.355 4.1875 111.355L12.8555 113.625L13.1016 113.625C13.2109 113.625 13.3021 113.607 13.375 113.57C13.4479 113.516 13.457 113.397 13.4023 113.215C13.3841 112.723 13.3659 112.194 13.3477 111.629C13.3112 111.046 13.2565 110.444 13.1836 109.824C13.0924 109.204 12.9648 108.603 12.8008 108.02C12.6185 107.436 12.3815 106.917 12.0898 106.461C11.7799 106.005 11.3971 105.641 10.9414 105.367C10.4674 105.076 9.89323 104.93 9.21875 104.93C8.36198 104.93 7.50521 105.167 6.64844 105.641C5.79167 106.096 5.00781 106.68 4.29687 107.391C3.58594 108.102 3.01172 108.895 2.57422 109.77C2.13672 110.645 1.91797 111.501 1.91797 112.34C1.91797 112.759 2.00911 113.133 2.19141 113.461C2.35547 113.771 2.53776 114.053 2.73828 114.309C2.92057 114.564 3.10286 114.81 3.28516 115.047C3.44922 115.284 3.53125 115.512 3.53125 115.73C3.53125 116.095 3.34896 116.277 2.98437 116.277C2.96615 116.277 2.94792 116.277 2.92969 116.277C2.91146 116.259 2.89323 116.25 2.875 116.25C2.49219 116.104 2.15495 115.895 1.86328 115.621C1.57161 115.348 1.31641 115.047 1.09766 114.719C0.878906 114.372 0.723958 114.008 0.632812 113.625C0.523437 113.224 0.46875 112.832 0.46875 112.449C0.46875 112.158 0.46875 111.884 0.46875 111.629C0.46875 111.355 0.514323 111.073 0.605468 110.781C1.00651 109.888 1.48047 109.004 2.02734 108.129C2.55599 107.236 3.17578 106.434 3.88672 105.723C4.57943 105.012 5.38151 104.437 6.29297 104C7.1862 103.562 8.17057 103.344 9.24609 103.344C10.1029 103.344 10.832 103.517 11.4336 103.863C12.0169 104.21 12.5091 104.674 12.9102 105.258C13.3112 105.841 13.6211 106.507 13.8398 107.254C14.0586 107.983 14.2227 108.74 14.332 109.523C14.4232 110.307 14.4779 111.082 14.4961 111.848C14.4961 112.595 14.487 113.27 14.4687 113.871L14.6055 113.98L22.3437 116.004C22.5443 116.059 22.7083 116.177 22.8359 116.359C22.9453 116.542 23 116.733 23 116.934C23 117.061 22.9544 117.161 22.8633 117.234C22.7721 117.307 22.6719 117.362 22.5625 117.398C22.4531 117.435 22.3346 117.462 22.207 117.48C22.0794 117.48 21.9883 117.471 21.9336 117.453L6.45703 113.625ZM19.7461 103.535C19.3633 103.025 18.9896 102.651 18.625 102.414C18.2604 102.159 17.8958 101.958 17.5312 101.812C17.1667 101.667 16.7839 101.548 16.3828 101.457C15.9635 101.366 15.5078 101.22 15.0156 101.02C14.888 101.092 14.7786 101.138 14.6875 101.156C14.5781 101.156 14.4505 101.156 14.3047 101.156C14.1589 101.156 13.9857 101.138 13.7852 101.102C13.5846 101.047 13.4023 100.974 13.2383 100.883C13.056 100.792 12.901 100.682 12.7734 100.555C12.6458 100.427 12.582 100.272 12.582 100.09C12.6549 100.108 12.737 100.008 12.8281 99.7891C12.9193 99.5521 13.0195 99.2695 13.1289 98.9414C13.2383 98.5951 13.3568 98.2305 13.4844 97.8477C13.612 97.4648 13.7487 97.1276 13.8945 96.8359C14.0768 96.5078 14.2773 96.2799 14.4961 96.1523C14.6966 96.0065 14.9883 95.9336 15.3711 95.9336C15.7174 95.9336 16.1094 95.9792 16.5469 96.0703C16.9844 96.1432 17.431 96.2253 17.8867 96.3164C18.3242 96.3893 18.7708 96.4714 19.2266 96.5625C19.6641 96.6354 20.0651 96.6719 20.4297 96.6719L21.1406 96.6719C21.3047 96.6901 21.3958 96.6536 21.4141 96.5625C21.4141 96.4531 21.4141 96.3529 21.4141 96.2617C21.4141 96.043 21.3776 95.8424 21.3047 95.6602C21.2318 95.4779 21.1497 95.2956 21.0586 95.1133C20.9674 94.9128 20.8854 94.7214 20.8125 94.5391C20.7214 94.3568 20.6576 94.1654 20.6211 93.9648L19.1445 91.5586C19.0169 91.4857 18.9167 91.3945 18.8437 91.2852C18.7526 91.1576 18.6706 91.0391 18.5977 90.9297C18.4883 90.7474 18.3333 90.5286 18.1328 90.2734C18.0234 90.1458 17.9141 90.0091 17.8047 89.8633L17.8047 89.043C17.8047 88.9883 17.8594 88.9518 17.9687 88.9336C18.0781 88.9154 18.1602 88.9062 18.2148 88.9062C18.4336 88.9062 18.707 89.0612 19.0352 89.3711C19.3633 89.681 19.7005 90.082 20.0469 90.5742C20.3932 91.0664 20.7396 91.6133 21.0859 92.2148C21.4141 92.8164 21.7148 93.4089 21.9883 93.9922C22.2617 94.5573 22.4805 95.0859 22.6445 95.5781C22.8086 96.0521 22.8906 96.4167 22.8906 96.6719C22.8906 97 22.8086 97.2643 22.6445 97.4648C22.4805 97.6654 22.2799 97.8294 22.043 97.957C21.806 98.0846 21.5508 98.1758 21.2773 98.2305C20.9857 98.2669 20.7031 98.2852 20.4297 98.2852C20.2292 98.2852 19.9466 98.2214 19.582 98.0937C19.2174 97.9661 18.8437 97.8203 18.4609 97.6562C18.0781 97.4922 17.7044 97.3464 17.3398 97.2187C16.9753 97.0911 16.6836 97.0273 16.4648 97.0273C16.4466 97.0273 16.3737 97.1641 16.2461 97.4375C16.1185 97.6927 15.9818 97.9753 15.8359 98.2852C15.6719 98.5951 15.5352 98.8867 15.4258 99.1602C15.2982 99.4154 15.2253 99.543 15.207 99.543C15.6263 99.944 16.0729 100.227 16.5469 100.391C17.0208 100.536 17.513 100.691 18.0234 100.855C18.5339 101.001 19.0443 101.229 19.5547 101.539C20.0651 101.831 20.5664 102.332 21.0586 103.043C21.0586 103.061 21.0495 103.098 21.0312 103.152C21.013 103.225 20.9674 103.289 20.8945 103.344C20.8034 103.417 20.6758 103.471 20.5117 103.508C20.3294 103.544 20.0742 103.553 19.7461 103.535ZM20.8672 90.082C20.849 90.082 20.7852 90.0729 20.6758 90.0547C20.5664 90.0365 20.457 90.0182 20.3477 90C20.2201 89.9818 20.1107 89.9635 20.0195 89.9453C19.9102 89.9271 19.8372 89.918 19.8008 89.918L19.6914 89.918L19.5273 89.918L17.8047 89.5352C17.1484 89.2253 16.5195 88.9062 15.918 88.5781C15.3164 88.2318 14.7878 87.8398 14.332 87.4023C13.8763 86.9648 13.5117 86.4635 13.2383 85.8984C12.9648 85.3151 12.8281 84.6133 12.8281 83.793C12.8281 83.6289 12.8828 83.4284 12.9922 83.1914C13.0833 82.9362 13.2018 82.6901 13.3477 82.4531C13.4935 82.1979 13.6484 81.9701 13.8125 81.7695C13.9583 81.5508 14.0951 81.3867 14.2227 81.2773C14.1315 80.7122 14.0859 80.3021 14.0859 80.0469C14.0677 79.7917 14.0586 79.5729 14.0586 79.3906C14.0404 79.2083 14.0039 79.0169 13.9492 78.8164C13.8945 78.5977 13.776 78.2695 13.5937 77.832C13.5026 77.5221 13.457 77.2214 13.457 76.9297C13.457 76.8021 13.5117 76.6836 13.6211 76.5742C13.7305 76.4466 13.8581 76.3828 14.0039 76.3828C14.1862 76.3828 14.3503 76.4466 14.4961 76.5742C14.6419 76.7018 14.7331 76.8568 14.7695 77.0391L15.5352 80.457L15.6719 80.7578C16.6562 80.776 17.5951 80.9948 18.4883 81.4141C19.3815 81.8333 20.1654 82.3893 20.8398 83.082C21.5143 83.7747 22.0521 84.5768 22.4531 85.4883C22.8359 86.3997 23.0273 87.3477 23.0273 88.332C23.0273 88.4049 23.0182 88.5234 23 88.6875C23 88.8516 23 88.9609 23 89.0156C22.8359 89.4167 22.5352 89.6992 22.0977 89.8633C21.6602 90.0091 21.25 90.082 20.8672 90.082ZM21.4141 88.332C21.5052 88.3138 21.5508 88.2409 21.5508 88.1133C21.5508 87.9857 21.5508 87.8945 21.5508 87.8398C21.5508 87.1836 21.3867 86.5091 21.0586 85.8164C20.7122 85.1237 20.2747 84.5039 19.7461 83.957C19.1992 83.3919 18.5885 82.9362 17.9141 82.5898C17.2214 82.2253 16.5286 82.043 15.8359 82.043C15.8359 82.6263 15.7904 83.2096 15.6992 83.793C15.5898 84.3763 15.5352 84.9414 15.5352 85.4883L15.5352 85.5156L17.9414 87.7852C18.069 87.9128 18.2422 88.013 18.4609 88.0859C18.6797 88.1589 18.9167 88.2135 19.1719 88.25C19.4271 88.2865 19.6823 88.3138 19.9375 88.332C20.1927 88.3503 20.4206 88.3594 20.6211 88.3594C20.6758 88.3594 20.8034 88.3594 21.0039 88.3594C21.2044 88.3594 21.3411 88.3503 21.4141 88.332ZM22.3437 76.7656C21.888 76.7109 21.4596 76.638 21.0586 76.5469C20.6393 76.4557 20.2292 76.3555 19.8281 76.2461C19.4271 76.1367 19.0169 76.0182 18.5977 75.8906C18.1602 75.7448 17.668 75.5898 17.1211 75.4258L16.9844 75.4258C17.4036 76.1549 17.6133 76.6745 17.6133 76.9844C17.6133 77.276 17.5039 77.4219 17.2852 77.4219C17.0664 77.4401 16.7747 77.349 16.4102 77.1484C16.0456 76.9297 15.7083 76.6745 15.3984 76.3828C15.0885 76.0729 14.8424 75.763 14.6602 75.4531C14.4779 75.125 14.4505 74.8698 14.5781 74.6875C14.5781 74.4687 14.6146 74.2956 14.6875 74.168C14.7604 74.0221 14.8698 73.8672 15.0156 73.7031C14.6875 73.2839 14.4232 72.8919 14.2227 72.5273C14.0221 72.1628 13.9219 71.7253 13.9219 71.2148C13.9219 70.4128 14.1042 69.8112 14.4687 69.4102C14.8333 68.9909 15.4167 68.6901 16.2187 68.5078C15.9089 68.1979 15.6263 67.9154 15.3711 67.6602C15.0977 67.4049 14.8698 67.1315 14.6875 66.8398C14.487 66.5299 14.3411 66.2018 14.25 65.8555C14.1406 65.5091 14.0859 65.1172 14.0859 64.6797C14.0859 64.3151 14.2227 63.9596 14.4961 63.6133C14.7695 63.2669 15.0703 63.0208 15.3984 62.875C15.4714 62.875 15.6354 62.875 15.8906 62.875C16.1458 62.875 16.319 62.875 16.4102 62.875C17.0299 62.875 17.6315 62.9479 18.2148 63.0937C18.7799 63.2396 19.3633 63.3125 19.9648 63.3125C20.22 63.3125 20.4844 63.2852 20.7578 63.2305C21.013 63.1576 21.1406 62.957 21.1406 62.6289C21.1406 62.1914 21.0495 61.7995 20.8672 61.4531C20.6849 61.0885 20.4661 60.7604 20.2109 60.4687C19.9375 60.1589 19.6458 59.8854 19.3359 59.6484C19.026 59.3932 18.7435 59.1654 18.4883 58.9648C18.2148 58.7461 17.987 58.5456 17.8047 58.3633C17.6224 58.181 17.5312 57.9987 17.5312 57.8164C17.5312 57.6888 17.5859 57.5521 17.6953 57.4062C17.7865 57.2422 17.9049 57.1602 18.0508 57.1602C18.069 57.1602 18.0964 57.1693 18.1328 57.1875C18.1693 57.1875 18.1966 57.1875 18.2148 57.1875C18.7799 57.3698 19.3177 57.6341 19.8281 57.9805C20.3385 58.3268 20.7943 58.7279 21.1953 59.1836C21.5781 59.6393 21.888 60.1497 22.125 60.7148C22.3437 61.2617 22.4531 61.8451 22.4531 62.4648C22.4531 63.0482 22.3802 63.5404 22.2344 63.9414C22.0703 64.3424 21.7057 64.6523 21.1406 64.8711C21.0859 64.8711 20.9674 64.8802 20.7852 64.8984C20.5846 64.8984 20.4661 64.8984 20.4297 64.8984C19.737 64.8984 19.0716 64.8346 18.4336 64.707C17.7956 64.5612 17.1484 64.4883 16.4922 64.4883C16.4375 64.4883 16.319 64.4974 16.1367 64.5156C15.9544 64.5156 15.8359 64.5156 15.7812 64.5156C15.6901 64.5885 15.6445 64.707 15.6445 64.8711C15.6445 65.0169 15.6445 65.1536 15.6445 65.2812C15.6445 65.6641 15.7812 66.0286 16.0547 66.375C16.3281 66.7214 16.6745 67.0404 17.0937 67.332C17.513 67.6237 17.987 67.888 18.5156 68.125C19.026 68.3437 19.5456 68.5352 20.0742 68.6992C20.5846 68.8633 21.0677 69 21.5234 69.1094C21.9609 69.2005 22.3255 69.2552 22.6172 69.2734L22.8906 69.5742L22.8906 70.5039C22.8906 70.668 22.8086 70.7591 22.6445 70.7773C22.4622 70.7773 22.3255 70.7773 22.2344 70.7773C21.7969 70.7773 21.3594 70.75 20.9219 70.6953C20.4661 70.6224 20.0195 70.5495 19.582 70.4766C19.1263 70.3854 18.6706 70.3034 18.2148 70.2305C17.7591 70.1576 17.3125 70.112 16.875 70.0937C16.7292 70.112 16.5742 70.1302 16.4102 70.1484C16.2279 70.1667 16.0638 70.2031 15.918 70.2578C15.7721 70.3125 15.6536 70.3945 15.5625 70.5039C15.4531 70.6133 15.3984 70.7682 15.3984 70.9687C15.3984 71.2604 15.4531 71.543 15.5625 71.8164C15.6719 72.0898 15.8177 72.3451 16 72.582C16.1641 72.8008 16.3737 73.0013 16.6289 73.1836C16.8659 73.3477 17.1302 73.4661 17.4219 73.5391L22.7266 75.1797L23 75.4258C23 75.4258 23 75.4805 23 75.5898C23.0182 75.6992 23.0273 75.7812 23.0273 75.8359C23.0273 76.0365 23.0091 76.2461 22.9727 76.4648C22.918 76.6654 22.7448 76.7656 22.4531 76.7656L22.3437 76.7656ZM20.8672 58.0625C20.849 58.0625 20.7852 58.0534 20.6758 58.0352C20.5664 58.0169 20.457 57.9987 20.3477 57.9805C20.22 57.9622 20.1107 57.944 20.0195 57.9258C19.9102 57.9076 19.8372 57.8984 19.8008 57.8984L19.6914 57.8984L19.5273 57.8984L17.8047 57.5156C17.1484 57.2057 16.5195 56.8867 15.918 56.5586C15.3164 56.2122 14.7878 55.8203 14.332 55.3828C13.8763 54.9453 13.5117 54.444 13.2383 53.8789C12.9648 53.2956 12.8281 52.5937 12.8281 51.7734C12.8281 51.6094 12.8828 51.4089 12.9922 51.1719C13.0833 50.9167 13.2018 50.6706 13.3477 50.4336C13.4935 50.1784 13.6484 49.9505 13.8125 49.75C13.9583 49.5312 14.095 49.3672 14.2227 49.2578C14.1315 48.6927 14.0859 48.2826 14.0859 48.0273C14.0677 47.7721 14.0586 47.5534 14.0586 47.3711C14.0404 47.1888 14.0039 46.9974 13.9492 46.7969C13.8945 46.5781 13.776 46.25 13.5937 45.8125C13.5026 45.5026 13.457 45.2018 13.457 44.9102C13.457 44.7826 13.5117 44.6641 13.6211 44.5547C13.7305 44.4271 13.8581 44.3633 14.0039 44.3633C14.1862 44.3633 14.3503 44.4271 14.4961 44.5547C14.6419 44.6823 14.7331 44.8372 14.7695 45.0195L15.5352 48.4375L15.6719 48.7383C16.6562 48.7565 17.595 48.9753 18.4883 49.3945C19.3815 49.8138 20.1654 50.3698 20.8398 51.0625C21.5143 51.7552 22.0521 52.5573 22.4531 53.4687C22.8359 54.3802 23.0273 55.3281 23.0273 56.3125C23.0273 56.3854 23.0182 56.5039 23 56.668C23 56.832 23 56.9414 23 56.9961C22.8359 57.3971 22.5352 57.6797 22.0977 57.8437C21.6602 57.9896 21.25 58.0625 20.8672 58.0625ZM21.4141 56.3125C21.5052 56.2943 21.5508 56.2214 21.5508 56.0937C21.5508 55.9661 21.5508 55.875 21.5508 55.8203C21.5508 55.1641 21.3867 54.4896 21.0586 53.7969C20.7122 53.1042 20.2747 52.4844 19.7461 51.9375C19.1992 51.3724 18.5885 50.9167 17.9141 50.5703C17.2214 50.2057 16.5286 50.0234 15.8359 50.0234C15.8359 50.6068 15.7904 51.1901 15.6992 51.7734C15.5898 52.3568 15.5352 52.9219 15.5352 53.4687L15.5352 53.4961L17.9414 55.7656C18.069 55.8932 18.2422 55.9935 18.4609 56.0664C18.6797 56.1393 18.9167 56.194 19.1719 56.2305C19.4271 56.2669 19.6823 56.2943 19.9375 56.3125C20.1927 56.3307 20.4206 56.3398 20.6211 56.3398C20.6758 56.3398 20.8034 56.3398 21.0039 56.3398C21.2044 56.3398 21.3411 56.3307 21.4141 56.3125ZM15.6719 44.418C15.599 44.3815 15.4896 44.3086 15.3437 44.1992C15.1797 44.0898 15.043 44.0352 14.9336 44.0352L14.8516 44.0352C14.8333 44.0352 14.8151 44.0534 14.7969 44.0898C14.7604 44.1263 14.7422 44.1536 14.7422 44.1719L14.7422 44.6641C14.888 45.138 14.9883 45.6667 15.043 46.25C15.0977 46.8516 15.1159 47.4258 15.0977 47.9727C15.0794 48.5378 15.0339 49.0208 14.9609 49.4219C14.8698 49.8229 14.7695 50.0599 14.6602 50.1328C14.5508 50.2057 14.4232 50.069 14.2773 49.7227C14.1133 49.3763 13.9492 48.7201 13.7852 47.7539C13.7852 47.6992 13.7669 47.5716 13.7305 47.3711C13.6758 47.1888 13.6302 46.9792 13.5937 46.7422C13.5573 46.5234 13.5208 46.3138 13.4844 46.1133C13.4297 45.9128 13.4023 45.7852 13.4023 45.7305C13.3841 45.6576 13.375 45.5026 13.375 45.2656C13.3568 45.0286 13.3385 44.7917 13.3203 44.5547C13.3021 44.2995 13.293 44.0625 13.293 43.8437C13.293 43.6068 13.293 43.4427 13.293 43.3516L13.1289 43.2148L9.54687 41.082C9.41927 41.0091 9.31901 40.8815 9.24609 40.6992C9.17317 40.4987 9.13672 40.3437 9.13672 40.2344C9.13672 39.9974 9.23698 39.8333 9.4375 39.7422C9.61979 39.651 9.80208 39.6055 9.98437 39.6055C10.0026 39.6055 10.0208 39.6146 10.0391 39.6328C10.0573 39.6328 10.0755 39.6328 10.0937 39.6328L10.2031 39.6328L13.1289 40.8359L13.293 40.8359C13.1836 40.7995 13.1289 40.7357 13.1289 40.6445C13.1289 40.5352 13.1289 40.4531 13.1289 40.3984C13.1289 40.125 13.22 39.8607 13.4023 39.6055C13.5846 39.3503 13.8307 39.2227 14.1406 39.2227C14.2865 39.2227 14.4049 39.2682 14.4961 39.3594C14.5872 39.4505 14.6602 39.5599 14.7148 39.6875C14.7695 39.8151 14.8151 39.9518 14.8516 40.0977C14.8698 40.2435 14.8789 40.3711 14.8789 40.4805C14.8789 40.6992 14.8516 40.9089 14.7969 41.1094C14.7422 41.2917 14.7148 41.4922 14.7148 41.7109C14.7148 41.9115 14.8242 42.0937 15.043 42.2578C15.2435 42.4219 15.5169 42.5768 15.8633 42.7227C16.1914 42.8503 16.5651 42.9596 16.9844 43.0508C17.4036 43.1419 17.8138 43.224 18.2148 43.2969C18.6159 43.3698 18.9896 43.4245 19.3359 43.4609C19.6823 43.4792 19.9466 43.4883 20.1289 43.4883C20.2018 43.4883 20.3477 43.4883 20.5664 43.4883C20.7852 43.4701 20.931 43.4609 21.0039 43.4609C21.1133 43.4427 21.2135 43.3971 21.3047 43.3242C21.3776 43.2513 21.4596 43.1784 21.5508 43.1055L21.5508 42.4766C21.5508 41.7474 21.3867 41.0273 21.0586 40.3164C20.7305 39.5872 20.3568 38.9036 19.9375 38.2656C19.9193 38.2292 19.8372 38.1471 19.6914 38.0195C19.5273 37.8737 19.3724 37.7187 19.2266 37.5547C19.0625 37.3906 18.9167 37.2448 18.7891 37.1172C18.6615 36.9714 18.5977 36.8711 18.5977 36.8164C18.5977 36.6888 18.6615 36.5703 18.7891 36.4609C18.9167 36.3516 19.0534 36.2969 19.1992 36.2969C19.5456 36.2969 19.8828 36.4245 20.2109 36.6797C20.5391 36.9167 20.849 37.2266 21.1406 37.6094C21.4141 37.9922 21.6693 38.4297 21.9062 38.9219C22.1432 39.4141 22.3437 39.9062 22.5078 40.3984C22.6719 40.8724 22.7995 41.3281 22.8906 41.7656C22.9818 42.1849 23.0273 42.5312 23.0273 42.8047C23.0273 43.0599 23 43.3242 22.9453 43.5977C22.8724 43.8711 22.763 44.1172 22.6172 44.3359C22.4714 44.5547 22.2891 44.737 22.0703 44.8828C21.8516 45.0286 21.5781 45.1016 21.25 45.1016L18.2148 45.1016L15.6719 44.418ZM17.2578 36.9531C17.1667 36.9349 17.0026 36.8802 16.7656 36.7891C16.5286 36.6979 16.2734 36.6068 16 36.5156C15.7266 36.4062 15.4714 36.306 15.2344 36.2148C14.9974 36.1237 14.8333 36.0599 14.7422 36.0234C14.4505 35.9141 14.2591 35.8138 14.168 35.7227C14.0768 35.6133 14.0312 35.4219 14.0312 35.1484C14.0312 34.8568 14.1315 34.6654 14.332 34.5742C14.5325 34.4831 14.7695 34.4375 15.043 34.4375C15.5169 34.4375 15.9544 34.5104 16.3555 34.6562C16.7383 34.7839 17.1302 34.9297 17.5312 35.0937C17.9141 35.2578 18.3333 35.4128 18.7891 35.5586C19.2266 35.6862 19.737 35.75 20.3203 35.75C20.3932 35.75 20.5026 35.75 20.6484 35.75C20.776 35.75 20.9128 35.7409 21.0586 35.7227C21.1862 35.7044 21.3047 35.668 21.4141 35.6133C21.5052 35.5586 21.5508 35.4857 21.5508 35.3945C21.5508 34.9206 21.4596 34.4466 21.2773 33.9727C21.0768 33.4805 20.849 33.0065 20.5937 32.5508C20.3203 32.0768 20.0286 31.6302 19.7187 31.2109C19.3906 30.7734 19.1081 30.3815 18.8711 30.0352C18.7799 29.9076 18.6888 29.8164 18.5977 29.7617C18.5065 29.6888 18.4245 29.625 18.3516 29.5703C18.2604 29.5156 18.1875 29.4518 18.1328 29.3789C18.0599 29.2878 18.0234 29.151 18.0234 28.9687C18.0234 28.7318 18.0781 28.5404 18.1875 28.3945C18.2786 28.2305 18.4518 28.1484 18.707 28.1484C18.8164 28.1484 18.9167 28.1576 19.0078 28.1758C19.099 28.1758 19.181 28.2214 19.2539 28.3125C19.3086 28.3307 19.3815 28.4036 19.4727 28.5312C19.5638 28.6406 19.6641 28.7591 19.7734 28.8867C19.8646 29.0143 19.9557 29.1328 20.0469 29.2422C20.1198 29.3516 20.1654 29.4336 20.1836 29.4883C20.1836 29.5065 20.2109 29.5612 20.2656 29.6523C20.3021 29.7253 20.3203 29.7708 20.3203 29.7891C20.3385 29.8073 20.3659 29.8346 20.4023 29.8711C20.4206 29.8893 20.4388 29.8984 20.457 29.8984C20.7487 30.2812 21.0495 30.7005 21.3594 31.1562C21.651 31.5937 21.9245 32.0586 22.1797 32.5508C22.4167 33.043 22.6172 33.5534 22.7812 34.082C22.9453 34.5924 23.0273 35.1029 23.0273 35.6133C23.0273 36.0508 22.918 36.388 22.6992 36.625C22.4622 36.8437 22.1706 37.0078 21.8242 37.1172C21.4779 37.2266 21.1133 37.2904 20.7305 37.3086C20.3477 37.3268 20.0013 37.3359 19.6914 37.3359L17.2578 36.9531ZM10.0664 35.6406C9.73828 35.6406 9.51953 35.5768 9.41015 35.4492C9.30078 35.3216 9.24609 35.0937 9.24609 34.7656C9.24609 34.6016 9.28255 34.4375 9.35547 34.2734C9.41015 34.1094 9.55599 34.0273 9.79297 34.0273C10.0299 34.0273 10.2487 34.1458 10.4492 34.3828C10.6497 34.6016 10.75 34.8203 10.75 35.0391C10.75 35.2578 10.6862 35.4128 10.5586 35.5039C10.4128 35.5951 10.2487 35.6406 10.0664 35.6406ZM20.8672 27.3555C20.849 27.3555 20.7852 27.3464 20.6758 27.3281C20.5664 27.3099 20.457 27.2917 20.3477 27.2734C20.22 27.2552 20.1107 27.237 20.0195 27.2187C19.9102 27.2005 19.8372 27.1914 19.8008 27.1914L19.6914 27.1914L19.5273 27.1914L17.8047 26.8086C17.1484 26.4987 16.5195 26.1797 15.918 25.8516C15.3164 25.5052 14.7878 25.1133 14.332 24.6758C13.8763 24.2383 13.5117 23.737 13.2383 23.1719C12.9648 22.5885 12.8281 21.8867 12.8281 21.0664C12.8281 20.9023 12.8828 20.7018 12.9922 20.4648C13.0833 20.2096 13.2018 19.9635 13.3477 19.7266C13.4935 19.4714 13.6484 19.2435 13.8125 19.043C13.9583 18.8242 14.095 18.6602 14.2227 18.5508C14.1315 17.9857 14.0859 17.5755 14.0859 17.3203C14.0677 17.0651 14.0586 16.8464 14.0586 16.6641C14.0404 16.4818 14.0039 16.2904 13.9492 16.0898C13.8945 15.8711 13.776 15.543 13.5937 15.1055C13.5026 14.7956 13.457 14.4948 13.457 14.2031C13.457 14.0755 13.5117 13.957 13.6211 13.8477C13.7305 13.7201 13.8581 13.6562 14.0039 13.6562C14.1862 13.6562 14.3503 13.7201 14.4961 13.8477C14.6419 13.9753 14.7331 14.1302 14.7695 14.3125L15.5352 17.7305L15.6719 18.0312C16.6562 18.0495 17.595 18.2682 18.4883 18.6875C19.3815 19.1068 20.1654 19.6628 20.8398 20.3555C21.5143 21.0482 22.0521 21.8503 22.4531 22.7617C22.8359 23.6732 23.0273 24.6211 23.0273 25.6055C23.0273 25.6784 23.0182 25.7969 23 25.9609C23 26.125 23 26.2344 23 26.2891C22.8359 26.6901 22.5352 26.9727 22.0977 27.1367C21.6602 27.2826 21.25 27.3555 20.8672 27.3555ZM21.4141 25.6055C21.5052 25.5872 21.5508 25.5143 21.5508 25.3867C21.5508 25.2591 21.5508 25.168 21.5508 25.1133C21.5508 24.457 21.3867 23.7826 21.0586 23.0898C20.7122 22.3971 20.2747 21.7773 19.7461 21.2305C19.1992 20.6654 18.5885 20.2096 17.9141 19.8633C17.2213 19.4987 16.5286 19.3164 15.8359 19.3164C15.8359 19.8997 15.7904 20.4831 15.6992 21.0664C15.5898 21.6497 15.5352 22.2148 15.5352 22.7617L15.5352 22.7891L17.9414 25.0586C18.069 25.1862 18.2422 25.2865 18.4609 25.3594C18.6797 25.4323 18.9167 25.487 19.1719 25.5234C19.4271 25.5599 19.6823 25.5872 19.9375 25.6055C20.1927 25.6237 20.4206 25.6328 20.6211 25.6328C20.6758 25.6328 20.8034 25.6328 21.0039 25.6328C21.2044 25.6328 21.3411 25.6237 21.4141 25.6055ZM22.4531 14.3125L16.9844 13.3828L16.2187 13.3828L12.582 12.8359C12.5091 12.7812 12.4727 12.681 12.4727 12.5352C12.4544 12.3893 12.4453 12.2891 12.4453 12.2344C12.4453 12.0885 12.5 11.9245 12.6094 11.7422C12.7005 11.5417 12.8281 11.4414 12.9922 11.4414L14.8516 11.4414C14.7969 11.3685 14.6875 11.2409 14.5234 11.0586C14.3594 10.8763 14.1862 10.6849 14.0039 10.4844C13.8216 10.2656 13.6484 10.0651 13.4844 9.88281C13.3203 9.70052 13.2018 9.58203 13.1289 9.52734C12.9466 9.32682 12.7917 9.08984 12.6641 8.81641C12.5365 8.52474 12.4727 8.2513 12.4727 7.99609C12.4727 7.46745 12.6367 7.05729 12.9648 6.76562C13.293 6.45573 13.7122 6.30078 14.2227 6.30078C14.2591 6.30078 14.2865 6.30989 14.3047 6.32812C14.3047 6.32812 14.3229 6.32812 14.3594 6.32812L14.4687 6.32812L19.1445 7.36719L21.3594 7.36719C21.3594 6.80208 21.25 6.21875 21.0312 5.61719C20.7943 4.99739 20.5026 4.40495 20.1562 3.83984C19.8099 3.27474 19.418 2.74609 18.9805 2.2539C18.5247 1.76172 18.0872 1.33333 17.668 0.968749L17.668 0.859374C17.668 0.73177 17.7135 0.631509 17.8047 0.558592C17.8776 0.467447 17.9779 0.421874 18.1055 0.421874C18.5065 0.421874 18.9075 0.558592 19.3086 0.83203C19.6914 1.08724 20.056 1.42448 20.4023 1.84375C20.7487 2.24479 21.0768 2.71875 21.3867 3.26562C21.6966 3.79427 21.9609 4.32292 22.1797 4.85156C22.3984 5.36198 22.5716 5.86328 22.6992 6.35547C22.8268 6.84765 22.8906 7.26693 22.8906 7.61328C22.8906 7.95963 22.8268 8.23307 22.6992 8.43359C22.5716 8.63411 22.4075 8.78906 22.207 8.89844C21.9883 8.98958 21.7513 9.05338 21.4961 9.08984C21.2409 9.10807 20.9674 9.11719 20.6758 9.11719L20.3203 9.11719L15.0156 8.05078L14.1133 8.05078C14.1133 8.48828 14.3047 8.92578 14.6875 9.36328C15.0703 9.78255 15.5352 10.1654 16.082 10.5117C16.6289 10.8398 17.1849 11.1315 17.75 11.3867C18.3151 11.6237 18.7799 11.7969 19.1445 11.9062C19.2721 11.9427 19.5 11.9974 19.8281 12.0703C20.1562 12.1432 20.5026 12.2161 20.8672 12.2891C21.2318 12.3437 21.5781 12.3984 21.9062 12.4531C22.2344 12.5078 22.4713 12.5443 22.6172 12.5625C22.7266 12.5443 22.8086 12.5807 22.8633 12.6719C22.918 12.7448 22.9635 12.8359 23 12.9453C23.0182 13.0547 23.0273 13.1732 23.0273 13.3008C23.0273 13.4102 23.0273 13.5013 23.0273 13.5742C23.0273 13.7383 23 13.9023 22.9453 14.0664C22.8906 14.2305 22.7539 14.3125 22.5352 14.3125L22.4531 14.3125Z" fill="black"/>
</svg>
